<?xml version="1.0"?><svg viewBox="0 0 512 512" xmlns="http://www.w3.org/2000/svg" xmlns:xlink="http://www.w3.org/1999/xlink"><style>:root>svg{display:none}:root>svg:target{display:block}</style><svg viewBox="0 0 384 384" id="call" xmlns="http://www.w3.org/2000/svg"><path d="M353.188 252.052c-23.51 0-46.594-3.677-68.469-10.906-10.719-3.656-23.896-.302-30.438 6.417l-43.177 32.594c-50.073-26.729-80.917-57.563-107.281-107.26l31.635-42.052c8.219-8.208 11.167-20.198 7.635-31.448-7.26-21.99-10.948-45.063-10.948-68.583C132.146 13.823 118.323 0 101.333 0h-70.52C13.823 0 0 13.823 0 30.813 0 225.563 158.438 384 353.188 384c16.99 0 30.813-13.823 30.813-30.813v-70.323c-.001-16.989-13.824-30.812-30.813-30.812z" fill="#f1811a" data-original="#000000"/></svg><svg id="cat1" data-name="Слой 1" viewBox="0 0 225.06 249.27" xmlns="http://www.w3.org/2000/svg"><defs><style>.bcls-1,.bcls-2,.bcls-3,.bcls-5{fill:none;stroke:#fff;stroke-miterlimit:10}.bcls-1,.bcls-3{stroke-width:2px}.bcls-3{stroke-linecap:round}.bcls-4{fill:#fafafa}.bcls-5{stroke-width:.5px}</style></defs><path class="bcls-1" d="M99.6 27.32c18.57 0 34.52 1.2 41.46 2.9h.87V8c0-3.89-18.93-7-42.33-7S57.26 4.11 57.26 8v22.22h.87c6.94-1.7 22.87-2.9 41.47-2.9z"/><path class="bcls-1" d="M99.6 53.2c28.89 0 53.71 1.19 64.51 2.9h1.35V38.59c0-3.84-29.49-11.71-65.86-11.71s-65.87 7.87-65.87 11.71V56.1h1.35c10.8-1.71 35.62-2.9 64.52-2.9zM33.73 56.1l-3.18 1.67a2 2 0 00-1.09 1.8v1.6a2.45 2.45 0 001.67 2.31l1.87.62a.55.55 0 00.73-.52A2.55 2.55 0 0136 61c10.62-1.36 58.42-6.51 127.19.23a2.56 2.56 0 012.31 2.55.36.36 0 00.49.33l1.48-.61a2.43 2.43 0 001.51-2.25v-2.54a2 2 0 00-1.4-1.93l-2.08-.68"/><path class="bcls-2" d="M44.63 32.3l-6.76 2.93-.53-2.77 6.76-1.98.53 1.82z"/><path class="bcls-2" transform="rotate(18.37 159.442 33.333)" d="M155.89 32.39h7.04v1.89h-7.04z"/><path class="bcls-1" d="M33.73 64.34l-1.11 3.79-5.56 2.78M167.54 56.78l8.51.14v4.74h8.05V70.03l-1.42.95v1.58"/><path class="bcls-1" d="M14.1 74.45h7.15v-1.89s15.46-1.43 19.74 0l24.33-1.27s17.69-3 29.06 0l31.44-.47s19.74-1.74 25.9.63l23.06 1.11h7.45a1.88 1.88 0 011.87 1.88v4.79a2.93 2.93 0 01-3.31 2.9 34.26 34.26 0 00-8.69-.1l-20.85-1.1S134 78.87 126 81.09H95.17s-11.53-2.37-29.69-.32L41 81.56s-11.85-1.9-18.32.47l.32 1.74h-9.1a1.32 1.32 0 01-1.32-1.32V76a1.54 1.54 0 011.52-1.55z"/><path class="bcls-2" d="M13.19 72.56h6.16v1.9h-6.16zM23.14 69.96h5.69v2.07h-5.69zM31.28 69.32h6.25v2.71h-6.25zM45.41 69.32h6.72v2.66h-6.72zM64.84 68.69h3.09v2.23h-3.09zM67.94 67.19h5.67v3.13h-5.67zM83.56 66.79h6.32v3.24h-6.32zM93.51 67.9h6.48v3.31h-6.48zM117.21 67.9h6.32v2.78h-6.32zM129.69 67.19h6.63v2.84h-6.63zM143.67 67.9h7.03v2.13h-7.03zM158.91 69.8h4.43v2.21h-4.43zM172.42 69.8h5.53v2.76h-5.53z"/><path class="bcls-1" d="M15.56 83.77l-1.11 1.74h-4a3.22 3.22 0 00-3.23 3.23v.61a3.3 3.3 0 002.94 3.28l5.43.62.71-1.42s18.56-1.42 23.14.63l4.9-6.16 9.95 1.42v-4s-25.9-1-31.28 0M60.11 83.35v9.9a228.84 228.84 0 0136.64-.63l2.85-5.53h3.63v-3.32s-38.54-1.47-43.12-.42zM117.21 83.35l-13.98.42v13.27h13.98V83.35zM156 83.35a21.32 21.32 0 01.79 8.16s-25.79-.31-32.08 1.11l-4.34-6h-3.16v-3.27s34.67-.74 38.79 0z"/><path class="bcls-1" d="M158.2 83.77l27.42.71a4.22 4.22 0 014.1 3.81 9 9 0 01-.24 3.38l-17.06 1.58-6.16-5.43h-9.38s-.58-2.63 1.32-4.05z"/><path class="bcls-1" d="M189.31 86s4.59-.75 4.9 0v9.84A1.17 1.17 0 01193 97h-6.72M9.19 121.05h8l.79 1.74s10.49 1 19.73 1a4.36 4.36 0 013.22 1.42l3.75 4.09s10.26.32 10.74 0 0 2.69 0 2.69l-32.23.63s-7.26-1.26-6.87-3.47l-5-.85a3.25 3.25 0 01-2.69-2.9l-.31-3.25a1 1 0 01.87-1.1zM61.37 125.35s20.06 2.41 34.43 0l3.4 6.13 4-.95v2.05s-4.9 4.74-42.49 2.37c.03.05-1.87-7.35.66-9.6zM113.75 130.48v2.1a135 135 0 0041.41.79s1.56-.27 1.82-4.51a26.72 26.72 0 00-.1-4.08l-1.72-1.68-.59 1.68s-7.74.54-30.33-.73l-3.87 5.53-6.62-.73z"/><path class="bcls-1" d="M156.66 131.09c30.68-.22 32.34-2.24 32.34-2.24l-.63-7.8-3.32-1.11s5.69 2.85-13.42 2.22l-5.06 5.68-9.69-.31M36.54 132.32l-19.08 16.06-.79-1.58-5.17-1.16a3.56 3.56 0 00-2.23.21l-2.12.93a3.08 3.08 0 00-1.86 2.83v2.09l-3 .88A1.78 1.78 0 001 154.3v2.45s2.24 2.05 9.82 2.84a60.08 60.08 0 0115 3.95 66.58 66.58 0 0021.8 4.74c12.63.63 27.64 6 27.64 6s14.37 4.43 24.33 2.22 40.75-7.27 40.75-7.27l5.71 2.37"/><path class="bcls-1" d="M5.83 147.87l5.31 1.14 5.53-2.21M98.56 134.6l-1.81 26.26M91.9 160.78l1.91-25.17"/><path class="bcls-3" d="M84.43 166.54l1.42-4.65a80.72 80.72 0 017.83-2s5.19.69 7.18 3l1.11 3.63"/><path class="bcls-1" d="M85.85 161.88l7.35 3.24 7.66-2.21"/><path class="bcls-1" d="M138.08 163.68s-20.32 3.34-31.38 5.86-26.22 2.22-33.09-1.42-24.83-4.74-24.83-4.74-13.47.16-20-2.84-10.58-3.47-15.64-4.18-10.9-3.78-10.9-3.78"/><path class="bcls-3" d="M167.1 131.09l-.63 19.87"/><path class="bcls-2" d="M158.32 148.6h-2.3l-1.15 1.99 1.15 1.99h2.3l1.15-1.99-1.15-1.99zM194.98 153.8h-1.06l-.53.92.53.91h1.06l.53-.91-.53-.92zM186.05 156.67h-1.41l-.71 1.22.71 1.23h1.41l.71-1.23-.71-1.22zM179.78 165.47h-1.41l-.71 1.23.71 1.22h1.41l.71-1.22-.71-1.23zM180.23 176.31h-1.41l-.71 1.22.71 1.23h1.41l.7-1.23-.7-1.22zM185.71 183.63h-1.42l-.7 1.22.7 1.23h1.42l.7-1.23-.7-1.22zM193.21 185.89h-1.06l-.53.92.53.92h1.06l.53-.92-.53-.92zM150.67 167.92h-2.3l-1.15 1.99 1.15 1.99h2.3l1.15-1.99-1.15-1.99zM159.21 182.31h-2.3l-1.15 1.99 1.15 1.99h2.3l1.15-1.99-1.15-1.99z"/><path class="bcls-1" d="M177.42 190.13v4.74l7.68 2 5.8-1.58.72-4.79M197.32 151.91l-1-4.11-6.64-1.69-4.68 1.69h-1l-2.85-1.9v-12.32a8.37 8.37 0 011.48-3.1"/><path class="bcls-2" d="M172.36 161.89l7.27.88"/><path class="bcls-1" d="M85.85 183.29v54.02l-33.8-12.95 33.8-41.07zM98.96 179.41v27.26l13.9-3.79v-25.77l-13.9 2.3zM98.96 211.88v24.8l13.9-4.11v-24.32l-13.9 3.63zM51.26 172.11l.79 44.35 31.75-37.05-32.54-7.3zM10.19 162.33l30.01 7.58.79 46.55-30.8-54.13zM9.4 167.92l1.85 41.27 24.65 9.64-26.5-50.91z"/><path class="bcls-1" d="M5.83 158.75l1.36 53.13 83.88 36.33 94.21-29.38-.18-21.96"/><path class="bcls-1" d="M123.45 172.86v55.92l53.97-16.4"/><path class="bcls-1" d="M168.01 189.39v13.17l-15.3-3.48 11.12-9.4M123.45 192.61l15.16 3.9v-4.62M156.66 188.85c-4.71 5.72-8.55 4.52-8.55 4.52l-24.66-6.13M123.53 180.31l32.02 9.08"/><path class="bcls-1" d="M123.53 200.82l53.89 11.56v-17.51"/><path class="bcls-4" d="M214.25 170.51a17.29 17.29 0 01.12 3.75c-.28 4-1.79 7.9-4 9.79a4.16 4.16 0 01-2.07 1c-2.1.3-3.92-1.79-4.49-5.57a17.34 17.34 0 01-.12-3.75c.28-4 1.79-7.9 4-9.79a4.08 4.08 0 012.07-1c2.1-.29 3.93 1.79 4.49 5.57zm-4.1 11.89c1.78-1.54 3-4.76 3.26-8a14.14 14.14 0 00-.11-3.06c-.46-3.1-2-4.8-3.66-4.56a3.4 3.4 0 00-1.69.84c-1.78 1.54-3 4.77-3.26 8a14.83 14.83 0 00.11 3.06c.46 3.09 1.95 4.79 3.67 4.55a3.3 3.3 0 001.68-.84"/><path class="bcls-4" d="M211.43 173a8.11 8.11 0 01.06 1.71 6.85 6.85 0 01-1.82 4.48 1.79 1.79 0 01-.95.48c-1 .13-1.79-.82-2.05-2.55a8.19 8.19 0 010-1.72 6.92 6.92 0 011.81-4.48 2 2 0 01.95-.47c.92-.18 1.74.78 2 2.55zm-2 4.54a4.07 4.07 0 001.1-2.69 4.4 4.4 0 000-1c-.15-1-.65-1.62-1.23-1.54a1.15 1.15 0 00-.57.29 4.09 4.09 0 00-1.09 2.69 4.39 4.39 0 000 1c.16 1 .66 1.62 1.23 1.54a1.11 1.11 0 00.57-.29"/><path class="bcls-4" d="M223.77 162.26a13.15 13.15 0 01.09 2.88c-.21 3.05-1.37 6.06-3 7.5l-4.86 4.15a25.53 25.53 0 01-1.45 5.1l1.24 8.32a13.14 13.14 0 01.1 2.88c-.21 3-1.38 6.06-3 7.5a3.28 3.28 0 01-1.59.8c-1.61.22-3-1.38-3.44-4.27l-1.24-8.32a4.75 4.75 0 01-2.47-1.72l-4.79 4.15a3.1 3.1 0 01-1.58.79c-1.61.23-3-1.37-3.44-4.27a13.12 13.12 0 01-.1-2.88c.22-3 1.39-6.06 3.05-7.5l4.79-4.14a25.34 25.34 0 011.45-5.1l-1.25-8.33a13 13 0 01-.09-2.87c.21-3 1.38-6.06 3-7.5a3.25 3.25 0 011.59-.8c1.61-.22 3 1.37 3.43 4.28l1.25 8.32a4.79 4.79 0 012.47 1.7l4.79-4.14a3.07 3.07 0 011.58-.79c1.64-.23 3.03 1.37 3.47 4.26zm-3.2 8.74c1.27-1.1 2.16-3.4 2.32-5.72a9.36 9.36 0 00-.07-2.19c-.33-2.22-1.39-3.43-2.63-3.26a2.47 2.47 0 00-1.2.6l-5.31 4.57-.2-.28a4.13 4.13 0 00-2.54-1.76l-.26-.05-1.38-9.22c-.33-2.22-1.39-3.44-2.62-3.26a2.37 2.37 0 00-1.21.6 9 9 0 00-2.32 5.73 9.89 9.89 0 00.07 2.18l1.38 9.23-.19.44a22.27 22.27 0 00-1.49 5.26l-.08.51-5.31 4.6c-1.28 1.1-2.16 3.4-2.33 5.72a10.63 10.63 0 00.08 2.19c.33 2.21 1.4 3.42 2.62 3.25a2.37 2.37 0 001.21-.6l5.31-4.59.19.26a4.17 4.17 0 002.55 1.77h.26l1.38 9.24c.33 2.21 1.4 3.42 2.62 3.25a2.4 2.4 0 001.21-.61c1.27-1.1 2.15-3.39 2.32-5.71a10 10 0 00-.08-2.2l-1.37-9.23.18-.44a21.74 21.74 0 001.5-5.25l.08-.51 5.31-4.6"/><path class="bcls-5" d="M30.37 91.24A2.78 2.78 0 0133.16 94v4.06"/><path class="bcls-5" d="M12.09 92.71a2.78 2.78 0 002.79 2.78h15.49a2.79 2.79 0 012.79 2.79v4.06"/><path class="bcls-5" d="M12.09 92.91V97a2.78 2.78 0 002.79 2.78h15.49a2.79 2.79 0 012.79 2.79v4.06"/><path class="bcls-5" d="M12.09 97.17v4.06a2.79 2.79 0 002.79 2.77h15.49a2.79 2.79 0 012.79 2.78v4.07"/><path class="bcls-5" d="M12.09 101.42v4.06a2.79 2.79 0 002.79 2.79h15.49a2.78 2.78 0 012.79 2.78v4.06"/><path class="bcls-5" d="M12.09 105.68v4.06a2.79 2.79 0 002.79 2.79h15.49a2.78 2.78 0 012.79 2.78v4.06"/><path class="bcls-5" d="M12.09 109.94V114a2.78 2.78 0 002.79 2.78h15.49a2.79 2.79 0 012.79 2.79v4.06"/><path class="bcls-5" d="M12.09 114.2v4.06a2.78 2.78 0 002.79 2.74h15.49a2.79 2.79 0 012.79 2.79M12.09 118.45v2.99M54.25 87.86v4.06M42 89.33h9.49a2.79 2.79 0 012.79 2.79v4.06"/><path class="bcls-5" d="M33.18 90.81A2.79 2.79 0 0036 93.59h15.46a2.79 2.79 0 012.79 2.78v4.06"/><path class="bcls-5" d="M33.18 91v4.06A2.79 2.79 0 0036 97.85h15.46a2.78 2.78 0 012.79 2.78v4.06"/><path class="bcls-5" d="M33.18 95.26v4.06a2.79 2.79 0 002.82 2.79h15.46a2.78 2.78 0 012.79 2.78V109"/><path class="bcls-5" d="M33.18 99.52v4.06a2.78 2.78 0 002.82 2.78h15.46a2.79 2.79 0 012.79 2.79v4.06"/><path class="bcls-5" d="M33.18 103.78v4.06a2.78 2.78 0 002.82 2.78h15.46a2.79 2.79 0 012.79 2.79v4.06"/><path class="bcls-5" d="M33.18 108v4.07a2.79 2.79 0 002.82 2.81h15.46a2.79 2.79 0 012.79 2.78v4.06"/><path class="bcls-5" d="M33.18 112.29v4.06a2.79 2.79 0 002.82 2.79h15.46a2.78 2.78 0 012.79 2.78V126"/><path class="bcls-5" d="M33.18 116.55v4.06A2.79 2.79 0 0036 123.4h15.46a2.78 2.78 0 012.79 2.78v4.06"/><path class="bcls-5" d="M43.15 127.65h8.31c1.54 0 2.8.19 2.8 1.73M78.88 91.63a2.79 2.79 0 012.79 2.79v4.06"/><path class="bcls-5" d="M60.6 89.05v4.06a2.79 2.79 0 002.79 2.78h15.49a2.79 2.79 0 012.79 2.79v4.06"/><path class="bcls-5" d="M60.6 93.3v4.07a2.79 2.79 0 002.79 2.78h15.49a2.79 2.79 0 012.79 2.78V107"/><path class="bcls-5" d="M60.6 97.56v4.06a2.79 2.79 0 002.79 2.79h15.49a2.78 2.78 0 012.79 2.78v4.06"/><path class="bcls-5" d="M60.6 101.82v4.06a2.78 2.78 0 002.79 2.78h15.49a2.79 2.79 0 012.79 2.79v4.06"/><path class="bcls-5" d="M60.6 106.08v4.06a2.78 2.78 0 002.79 2.78h15.49a2.79 2.79 0 012.79 2.79v4.06"/><path class="bcls-5" d="M60.6 110.34v4.06a2.79 2.79 0 002.79 2.78h15.49a2.79 2.79 0 012.79 2.82v4"/><path class="bcls-5" d="M60.6 114.59v4.06a2.79 2.79 0 002.79 2.79h15.49a2.79 2.79 0 012.79 2.78v2.6"/><path class="bcls-5" d="M60.6 118.85v4.06a2.79 2.79 0 002.79 2.79h15.49M98.44 89.24h1.48a2.79 2.79 0 012.79 2.76v4.06"/><path class="bcls-5" d="M81.8 91.63c0 1.54 1.09 1.87 2.63 1.87h15.49a2.79 2.79 0 012.79 2.79v4.06"/><path class="bcls-5" d="M81.8 91.63L81.64 95a2.79 2.79 0 002.79 2.78h15.49a2.79 2.79 0 012.79 2.78v4.06"/><path class="bcls-5" d="M81.64 95.17v4.06a2.79 2.79 0 002.79 2.77h15.49a2.78 2.78 0 012.79 2.78v4.06"/><path class="bcls-5" d="M81.64 99.43v4.06a2.79 2.79 0 002.79 2.79h15.49a2.78 2.78 0 012.79 2.78v4.06"/><path class="bcls-5" d="M81.64 103.69v4.06a2.78 2.78 0 002.79 2.78h15.49a2.79 2.79 0 012.79 2.79v4.06"/><path class="bcls-5" d="M81.64 108v4a2.79 2.79 0 002.79 2.78h15.49a2.79 2.79 0 012.79 2.79v4.06"/><path class="bcls-5" d="M81.64 112.2v4.07a2.79 2.79 0 002.79 2.78h15.49a2.79 2.79 0 012.79 2.78v4.06"/><path class="bcls-5" d="M81.64 116.46v4.06a2.79 2.79 0 002.79 2.79h15.49a2.78 2.78 0 012.79 2.78v4.06"/><path class="bcls-5" d="M97 127.57h2.89a2.78 2.78 0 012.79 2.78M81.64 120.72v4.06M117.83 92.09h15.49a2.79 2.79 0 012.79 2.79v4.06"/><path class="bcls-5" d="M117.83 96.35h15.49a2.79 2.79 0 012.79 2.78v4.06"/><path class="bcls-5" d="M115 97.82a2.79 2.79 0 002.79 2.79h15.49a2.78 2.78 0 012.79 2.78v4.06"/><path class="bcls-5" d="M115 98v4.06a2.79 2.79 0 002.79 2.79h15.49a2.78 2.78 0 012.79 2.78v4.06"/><path class="bcls-5" d="M115 102.28v4.06a2.78 2.78 0 002.79 2.78h15.49a2.79 2.79 0 012.79 2.79V116"/><path class="bcls-5" d="M115 106.54v4.06a2.79 2.79 0 002.79 2.78h15.49a2.79 2.79 0 012.79 2.78v4.07"/><path class="bcls-5" d="M115 110.79v4.06a2.79 2.79 0 002.79 2.79h15.49a2.79 2.79 0 012.79 2.78v4.06"/><path class="bcls-5" d="M115 115.05v4.06a2.79 2.79 0 002.79 2.79h15.49a2.78 2.78 0 012.79 2.78"/><path class="bcls-5" d="M115 119.31v4.06a2.78 2.78 0 002.79 2.78h5.52M115.04 123.57v5.28M138.89 92.32h15.5a2.79 2.79 0 012.78 2.79v4.06"/><path class="bcls-5" d="M136.11 91.35v2.45a2.77 2.77 0 002.78 2.78h15.5a2.79 2.79 0 012.78 2.79v4.06"/><path class="bcls-5" d="M136.11 94v4.06a2.78 2.78 0 002.78 2.78h15.5a2.79 2.79 0 012.78 2.78v4.07"/><path class="bcls-5" d="M136.11 98.25v4.06a2.78 2.78 0 002.78 2.79h15.5a2.78 2.78 0 012.78 2.78v4.06"/><path class="bcls-5" d="M136.11 102.51v4.06a2.78 2.78 0 002.78 2.79h15.5a2.78 2.78 0 012.78 2.78v4.06"/><path class="bcls-5" d="M136.11 106.77v4.06a2.77 2.77 0 002.78 2.78h15.5a2.79 2.79 0 012.78 2.79v4.06"/><path class="bcls-5" d="M136.11 111v4.06a2.77 2.77 0 002.78 2.78h15.5a2.79 2.79 0 012.78 2.79v4.06"/><path class="bcls-5" d="M136.11 115.29v4.06a2.78 2.78 0 002.78 2.78h15.5a2.79 2.79 0 012.78 2.78V129M136.11 119.54v4.62M178.54 93.44v4.06M157.47 87.87a2.78 2.78 0 002.79 2.78h9.21"/><path class="bcls-5" d="M157.47 88.07v4.06a2.78 2.78 0 002.79 2.78h15.49a2.79 2.79 0 012.79 2.79v4.06"/><path class="bcls-5" d="M157.47 92.32v4.07a2.79 2.79 0 002.79 2.78h15.49a2.79 2.79 0 012.79 2.78V106"/><path class="bcls-5" d="M157.47 96.58v4.06a2.79 2.79 0 002.79 2.79h15.49a2.78 2.78 0 012.79 2.78v4.06"/><path class="bcls-5" d="M157.47 100.84v4.06a2.79 2.79 0 002.79 2.79h15.49a2.78 2.78 0 012.79 2.78v4.06"/><path class="bcls-5" d="M157.47 105.1v4.06a2.78 2.78 0 002.79 2.78h15.49a2.79 2.79 0 012.79 2.79v4.06"/><path class="bcls-5" d="M157.47 109.36v4.06a2.79 2.79 0 002.79 2.78h15.49a2.79 2.79 0 012.79 2.79v4.06"/><path class="bcls-5" d="M157.47 113.61v4.07a2.79 2.79 0 002.79 2.78h15.49c1.54 0 2.7.56 2.7 2.1"/><path class="bcls-5" d="M157.47 117.87v4.06a2.79 2.79 0 002.79 2.79h8.68M186.41 92.32v4.94M178.32 91.88c0 1.54.48 2.79 1.07 2.79h6c.59 0 1.07 1.24 1.07 2.78v4.06"/><path class="bcls-5" d="M178.32 92.08v4.06c0 1.54.48 2.79 1.07 2.79h6c.59 0 1.07 1.24 1.07 2.78v4.06"/><path class="bcls-5" d="M178.32 96.34v4.06c0 1.54.48 2.78 1.07 2.78h6c.59 0 1.07 1.25 1.07 2.79V110"/><path class="bcls-5" d="M178.32 100.6v4.06c0 1.54.48 2.78 1.07 2.78h6c.59 0 1.07 1.25 1.07 2.79v4.06"/><path class="bcls-5" d="M178.32 104.85v4.07c0 1.53.48 2.78 1.07 2.78h6c.59 0 1.07 1.25 1.07 2.78v4.06"/><path class="bcls-5" d="M178.32 109.11v4.06c0 1.54.48 2.79 1.07 2.79h6c.59 0 1.07 1.24 1.07 2.78v1.94"/><path class="bcls-5" d="M178.32 113.37v4.06c0 1.54.48 2.79 1.07 2.79h6M178.32 117.63v4.06"/><path class="bcls-3" d="M191.27 191.76c-2.22 0-12-.42-14-1.2-7.59-3-13.05-11.08-13.05-20.65 0-12.07 8.68-21.85 19.39-21.85a17.52 17.52 0 018.76 2.36"/><path class="bcls-3" d="M166.1 181.37a11.72 11.72 0 01-4.26-.8c-5.1-2-8.76-7.45-8.76-13.87 0-8.11 5.83-14.68 13-14.68a7.49 7.49 0 013.94 1M196.43 191.18a26.85 26.85 0 01-5.16 0 15.9 15.9 0 01-5.8-1.09c-6.95-2.71-11.94-10.15-11.94-18.9 0-11 7.94-20 17.74-20a16 16 0 018 2.15l1.61 1.08"/><path class="bcls-3" d="M172.33 187.66a17 17 0 01-7.57 1.79c-10.74 0-19.45-10.19-19.45-22.75s8.71-22.76 19.45-22.76a16.56 16.56 0 011.73.09"/><path class="bcls-3" d="M137.81 163.65c1.67-15.64 12.41-27.7 25.4-27.7a20.71 20.71 0 012.62.17M141.61 185.14a37.44 37.44 0 01-4-15.21M194.14 182.79a11.69 11.69 0 117.71-21.51"/><path class="bcls-2" d="M129.45 135.19v1.74H131v3a.71.71 0 00.71.71h2.06a.71.71 0 00.71-.71v-2.85h1.6v-1.89zM157.92 131.59v1.55h1.41v2.67a.63.63 0 00.63.63h1.83a.63.63 0 00.63-.63v-2.53h1.43v-1.69zM171.9 131.07v1.55h1.41v2.67a.63.63 0 00.63.63h1.83a.63.63 0 00.63-.63v-2.53h1.43v-1.69zM83.09 136v1.74h1.58v3a.71.71 0 00.71.71h2.05a.71.71 0 00.71-.71v-2.84h1.6V136zM66.85 135.61v1.74h1.58v3a.7.7 0 00.71.7h2.06a.7.7 0 00.71-.7v-2.85h1.6v-1.9zM45.38 132.58v1.74H47v3a.71.71 0 00.71.71h2a.71.71 0 00.71-.71v-2.84H52v-1.9zM31.16 132.89v1.74h1.58v3a.71.71 0 00.71.71h2.06a.71.71 0 00.71-.71v-2.84h1.6v-1.9zM23 131.94v1.74h1.58v3a.71.71 0 00.71.71h2.05a.71.71 0 00.71-.71v-2.84h1.6v-1.9zM15.25 129.19v2.34h1.26v2.4a.57.57 0 00.57.57h1.65a.56.56 0 00.56-.57v-2.27h1.29v-.57zM116.86 133.81l-.1 1.73 1.58.1-.19 3a.72.72 0 00.67.75l2.05.12a.71.71 0 00.75-.66l.17-2.85 1.6.1.12-1.89zM143.65 135.25v1.5l1.36-.05.08 2.59a.61.61 0 00.63.59l1.78-.06a.61.61 0 00.59-.63l-.08-2.45h1.38l-.06-1.64z"/></svg><svg id="cat1-1" data-name="Слой 1" viewBox="0 0 225.07 249.27" xmlns="http://www.w3.org/2000/svg"><defs><style>.ccls-1,.ccls-2,.ccls-3,.ccls-5{fill:none;stroke:#f1811a;stroke-miterlimit:10}.ccls-1,.ccls-3{stroke-width:2px}.ccls-3{stroke-linecap:round}.ccls-4{fill:#e67b19}.ccls-5{stroke-width:.5px}</style></defs><path class="ccls-1" d="M99.6 27.32c18.57 0 34.52 1.2 41.46 2.9h.87V8c0-3.89-18.93-7-42.33-7S57.26 4.11 57.26 8v22.22h.87c6.94-1.7 22.87-2.9 41.47-2.9z"/><path class="ccls-1" d="M99.6 53.2c28.89 0 53.71 1.19 64.51 2.9h1.35V38.59c0-3.84-29.49-11.71-65.86-11.71s-65.87 7.87-65.87 11.71V56.1h1.35c10.8-1.71 35.62-2.9 64.52-2.9zM33.73 56.1l-3.18 1.67a2 2 0 00-1.09 1.8v1.6a2.45 2.45 0 001.67 2.31l1.87.62a.55.55 0 00.73-.52A2.55 2.55 0 0136 61c10.62-1.36 58.42-6.51 127.19.23a2.56 2.56 0 012.31 2.55.36.36 0 00.49.33l1.48-.61a2.43 2.43 0 001.51-2.25v-2.54a2 2 0 00-1.4-1.93l-2.08-.68"/><path class="ccls-2" d="M44.63 32.3l-6.76 2.93-.53-2.77 6.76-1.98.53 1.82z"/><path class="ccls-2" transform="rotate(18.37 159.442 33.333)" d="M155.89 32.39h7.04v1.89h-7.04z"/><path class="ccls-1" d="M33.73 64.34l-1.11 3.79-5.56 2.78M167.54 56.78l8.51.14v4.74h8.05V70.03l-1.42.95v1.58"/><path class="ccls-1" d="M14.1 74.45h7.15v-1.89s15.46-1.43 19.74 0l24.33-1.27s17.69-3 29.06 0l31.44-.47s19.74-1.74 25.9.63l23.06 1.11h7.45a1.88 1.88 0 011.87 1.88v4.79a2.93 2.93 0 01-3.31 2.9 34.26 34.26 0 00-8.69-.1l-20.85-1.1S134 78.87 126 81.09H95.17s-11.53-2.37-29.69-.32L41 81.56s-11.85-1.9-18.32.47l.32 1.74h-9.1a1.32 1.32 0 01-1.32-1.32V76a1.54 1.54 0 011.52-1.55z"/><path class="ccls-2" d="M13.19 72.56h6.16v1.9h-6.16zM23.14 69.96h5.69v2.07h-5.69zM31.28 69.32h6.25v2.71h-6.25zM45.41 69.32h6.72v2.66h-6.72zM64.84 68.69h3.09v2.23h-3.09zM67.94 67.19h5.67v3.13h-5.67zM83.56 66.79h6.32v3.24h-6.32zM93.51 67.9h6.48v3.31h-6.48zM117.21 67.9h6.32v2.78h-6.32zM129.69 67.19h6.63v2.84h-6.63zM143.67 67.9h7.03v2.13h-7.03zM158.91 69.8h4.43v2.21h-4.43zM172.42 69.8h5.53v2.76h-5.53z"/><path class="ccls-1" d="M15.56 83.77l-1.11 1.74h-4a3.22 3.22 0 00-3.23 3.23v.61a3.3 3.3 0 002.94 3.28l5.43.62.71-1.42s18.56-1.42 23.14.63l4.9-6.16 9.95 1.42v-4s-25.9-1-31.28 0M60.11 83.35v9.9a228.84 228.84 0 0136.64-.63l2.85-5.53h3.63v-3.32s-38.54-1.47-43.12-.42zM117.21 83.35l-13.98.42v13.27h13.98V83.35zM156 83.35a21.32 21.32 0 01.79 8.16s-25.79-.31-32.08 1.11l-4.34-6h-3.16v-3.27s34.67-.74 38.79 0z"/><path class="ccls-1" d="M158.2 83.77l27.42.71a4.22 4.22 0 014.1 3.81 9 9 0 01-.24 3.38l-17.06 1.58-6.16-5.43h-9.38s-.58-2.63 1.32-4.05z"/><path class="ccls-1" d="M189.31 86s4.59-.75 4.9 0v9.84A1.17 1.17 0 01193 97h-6.72M9.19 121.05h8l.79 1.74s10.49 1 19.73 1a4.36 4.36 0 013.22 1.42l3.75 4.09s10.26.32 10.74 0 0 2.69 0 2.69l-32.23.63s-7.26-1.26-6.87-3.47l-5-.85a3.25 3.25 0 01-2.69-2.9l-.31-3.25a1 1 0 01.87-1.1zM61.37 125.35s20.06 2.41 34.43 0l3.4 6.13 4-.95v2.05s-4.9 4.74-42.49 2.37c.03.05-1.87-7.35.66-9.6zM113.75 130.48v2.1a135 135 0 0041.41.79s1.56-.27 1.82-4.51a26.72 26.72 0 00-.1-4.08l-1.72-1.68-.59 1.68s-7.74.54-30.33-.73l-3.87 5.53-6.62-.73z"/><path class="ccls-1" d="M156.66 131.09c30.68-.22 32.34-2.24 32.34-2.24l-.63-7.8-3.32-1.11s5.69 2.85-13.42 2.22l-5.06 5.68-9.69-.31M32.62 135.61l-15.16 12.77-.79-1.58-5.17-1.16a3.56 3.56 0 00-2.23.21l-2.12.93a3.08 3.08 0 00-1.86 2.83v2.09l-3 .88A1.78 1.78 0 001 154.3v2.45s2.24 2.05 9.82 2.84a60.08 60.08 0 0115 3.95 66.58 66.58 0 0021.8 4.74c12.63.63 27.64 6 27.64 6s14.37 4.43 24.33 2.22 40.75-7.27 40.75-7.27l5.71 2.37"/><path class="ccls-1" d="M5.83 147.87l5.31 1.14 5.53-2.21M98.56 134.6l-1.81 26.26M91.9 160.78l1.91-25.17"/><path class="ccls-3" d="M84.43 166.54l1.42-4.65a80.72 80.72 0 017.83-2s5.19.69 7.18 3l1.11 3.63"/><path class="ccls-1" d="M85.85 161.88l7.35 3.24 7.66-2.21"/><path class="ccls-1" d="M138.08 163.68s-20.32 3.34-31.38 5.86-26.22 2.22-33.09-1.42-24.83-4.74-24.83-4.74-13.47.16-20-2.84-10.58-3.47-15.64-4.18-10.9-3.78-10.9-3.78"/><path class="ccls-3" d="M167.1 131.09l-.63 19.87"/><path class="ccls-2" d="M158.32 148.6h-2.3l-1.15 1.99 1.15 1.99h2.3l1.15-1.99-1.15-1.99zM194.98 153.8h-1.06l-.53.92.53.91h1.06l.53-.91-.53-.92zM186.05 156.67h-1.41l-.71 1.22.71 1.23h1.41l.71-1.23-.71-1.22zM179.78 165.47h-1.41l-.71 1.23.71 1.22h1.41l.71-1.22-.71-1.23zM180.23 176.31h-1.41l-.71 1.22.71 1.23h1.41l.7-1.23-.7-1.22zM185.71 183.63h-1.42l-.7 1.22.7 1.23h1.42l.7-1.23-.7-1.22zM193.21 185.89h-1.06l-.53.92.53.92h1.06l.53-.92-.53-.92zM150.67 167.92h-2.3l-1.15 1.99 1.15 1.99h2.3l1.15-1.99-1.15-1.99zM159.21 182.31h-2.3l-1.15 1.99 1.15 1.99h2.3l1.15-1.99-1.15-1.99z"/><path class="ccls-1" d="M177.42 190.13v4.74l7.68 2 5.8-1.58.72-4.79M197.32 151.91l-1-4.11-6.64-1.69-4.68 1.69h-1l-2.85-1.9v-12.32a8.37 8.37 0 011.48-3.1"/><path class="ccls-2" d="M172.36 161.89l7.27.88"/><path class="ccls-1" d="M85.85 183.29v54.02l-33.8-12.95 33.8-41.07zM98.96 179.41v27.26l13.9-3.79v-25.77l-13.9 2.3zM98.96 211.88v24.8l13.9-4.11v-24.32l-13.9 3.63zM51.26 172.11l.79 44.35 31.75-37.05-32.54-7.3zM10.19 162.33l30.01 7.58.79 46.55-30.8-54.13zM9.4 167.92l1.85 41.27 24.65 9.64-26.5-50.91z"/><path class="ccls-1" d="M5.83 158.75l1.36 53.13 83.88 36.33 94.21-29.38-.18-21.96"/><path class="ccls-1" d="M123.45 172.86v55.92l53.97-16.4"/><path class="ccls-1" d="M168.01 189.39v13.17l-15.3-3.48 11.12-9.4M123.45 192.61l15.16 3.9v-4.62M156.66 188.85c-4.71 5.72-8.55 4.52-8.55 4.52l-24.66-6.13M123.53 180.31l32.02 9.08"/><path class="ccls-1" d="M123.53 200.82l53.89 11.56v-17.51"/><path class="ccls-4" d="M223.77 162.26a13.15 13.15 0 01.09 2.88c-.21 3.05-1.37 6.06-3 7.5l-4.8 4.15a24.87 24.87 0 01-1.44 5.1l1.24 8.32a13.14 13.14 0 01.1 2.88c-.22 3-1.37 6.06-3 7.5a3.24 3.24 0 01-1.59.8c-1.61.22-3-1.38-3.44-4.27l-1.24-8.32a4.75 4.75 0 01-2.47-1.72l-4.78 4.15a3.17 3.17 0 01-1.59.79c-1.61.23-3-1.37-3.44-4.27a13.13 13.13 0 01-.09-2.88c.21-3 1.38-6.06 3-7.5l4.79-4.14a24.7 24.7 0 011.45-5.1l-1.24-8.33a13 13 0 01-.1-2.87c.22-3 1.38-6.06 3-7.5a3.09 3.09 0 011.58-.8c1.61-.22 3 1.37 3.44 4.28l1.24 8.32a4.71 4.71 0 012.47 1.7l4.79-4.14a3.07 3.07 0 011.58-.79c1.62-.23 3.01 1.37 3.45 4.26zm-3.2 8.74c1.27-1.1 2.16-3.4 2.32-5.72a9.36 9.36 0 00-.07-2.19c-.33-2.22-1.4-3.43-2.62-3.26a2.35 2.35 0 00-1.2.6l-5.32 4.57-.19-.28A4.18 4.18 0 00211 163l-.27-.05-1.38-9.22c-.33-2.22-1.39-3.44-2.62-3.26a2.37 2.37 0 00-1.21.6c-1.27 1.1-2.16 3.41-2.32 5.73a10.54 10.54 0 00.07 2.18l1.38 9.23-.19.44a22.27 22.27 0 00-1.49 5.26l-.08.51-5.31 4.6c-1.27 1.1-2.16 3.4-2.32 5.72a10 10 0 00.07 2.19c.33 2.21 1.4 3.42 2.62 3.25a2.34 2.34 0 001.21-.6l5.31-4.59.19.26a4.19 4.19 0 002.55 1.77h.26l1.38 9.24c.33 2.21 1.4 3.42 2.62 3.25a2.35 2.35 0 001.2-.6 8.74 8.74 0 002.33-5.72 10.71 10.71 0 00-.07-2.2l-1.38-9.23.18-.44a21.3 21.3 0 001.5-5.25l.08-.51 5.31-4.6"/><path class="ccls-4" d="M214.25 170.51a17.29 17.29 0 01.12 3.75c-.28 4-1.8 7.9-4 9.79a4.09 4.09 0 01-2.06 1c-2.1.3-3.92-1.79-4.49-5.57a17.31 17.31 0 01-.12-3.75c.28-4 1.8-7.9 4-9.79a4.05 4.05 0 012.06-1c2.1-.29 3.93 1.79 4.49 5.57zm-4.1 11.89c1.79-1.54 3-4.76 3.25-8a13.63 13.63 0 00-.1-3.07c-.46-3.1-2-4.8-3.67-4.56a3.42 3.42 0 00-1.68.84c-1.78 1.54-3 4.77-3.25 8a13.56 13.56 0 00.1 3.06c.46 3.09 1.95 4.79 3.67 4.55a3.33 3.33 0 001.68-.84"/><path class="ccls-4" d="M211.44 173a8.12 8.12 0 01.05 1.71 6.85 6.85 0 01-1.82 4.48 1.84 1.84 0 01-.94.48c-1 .13-1.8-.82-2.06-2.55a8.19 8.19 0 010-1.72 6.87 6.87 0 011.82-4.48 1.9 1.9 0 01.94-.47c.92-.18 1.74.78 2.01 2.55zm-2 4.54a4.12 4.12 0 001.1-2.69 4.4 4.4 0 000-1c-.15-1-.65-1.62-1.23-1.54a1.19 1.19 0 00-.57.29 4.19 4.19 0 00-1.1 2.69 3.9 3.9 0 000 1c.14 1 .65 1.62 1.23 1.54a1.12 1.12 0 00.56-.29"/><path class="ccls-5" d="M30.37 91.24A2.78 2.78 0 0133.16 94v4.06"/><path class="ccls-5" d="M12.09 92.71a2.78 2.78 0 002.79 2.78h15.49a2.79 2.79 0 012.79 2.79v4.06"/><path class="ccls-5" d="M12.09 92.91V97a2.78 2.78 0 002.79 2.78h15.49a2.79 2.79 0 012.79 2.79v4.06"/><path class="ccls-5" d="M12.09 97.17v4.06a2.79 2.79 0 002.79 2.77h15.49a2.79 2.79 0 012.79 2.78v4.07"/><path class="ccls-5" d="M12.09 101.42v4.06a2.79 2.79 0 002.79 2.79h15.49a2.78 2.78 0 012.79 2.78v4.06"/><path class="ccls-5" d="M12.09 105.68v4.06a2.79 2.79 0 002.79 2.79h15.49a2.78 2.78 0 012.79 2.78v4.06"/><path class="ccls-5" d="M12.09 109.94V114a2.78 2.78 0 002.79 2.78h15.49a2.79 2.79 0 012.79 2.79v4.06"/><path class="ccls-5" d="M12.09 114.2v4.06a2.78 2.78 0 002.79 2.74h15.49a2.79 2.79 0 012.79 2.79M12.09 118.45v2.99M54.25 87.86v4.06M42 89.33h9.49a2.79 2.79 0 012.79 2.79v4.06"/><path class="ccls-5" d="M33.18 90.81A2.79 2.79 0 0036 93.59h15.46a2.79 2.79 0 012.79 2.78v4.06"/><path class="ccls-5" d="M33.18 91v4.06A2.79 2.79 0 0036 97.85h15.46a2.78 2.78 0 012.79 2.78v4.06"/><path class="ccls-5" d="M33.18 95.26v4.06a2.79 2.79 0 002.82 2.79h15.46a2.78 2.78 0 012.79 2.78V109"/><path class="ccls-5" d="M33.18 99.52v4.06a2.78 2.78 0 002.82 2.78h15.46a2.79 2.79 0 012.79 2.79v4.06"/><path class="ccls-5" d="M33.18 103.78v4.06a2.78 2.78 0 002.82 2.78h15.46a2.79 2.79 0 012.79 2.79v4.06"/><path class="ccls-5" d="M33.18 108v4.07a2.79 2.79 0 002.82 2.81h15.46a2.79 2.79 0 012.79 2.78v4.06"/><path class="ccls-5" d="M33.18 112.29v4.06a2.79 2.79 0 002.82 2.79h15.46a2.78 2.78 0 012.79 2.78V126"/><path class="ccls-5" d="M33.18 116.55v4.06A2.79 2.79 0 0036 123.4h15.46a2.78 2.78 0 012.79 2.78v4.06"/><path class="ccls-5" d="M43.15 127.65h8.31c1.54 0 2.8.19 2.8 1.73M78.88 91.63a2.79 2.79 0 012.79 2.79v4.06"/><path class="ccls-5" d="M60.6 89.05v4.06a2.79 2.79 0 002.79 2.78h15.49a2.79 2.79 0 012.79 2.79v4.06"/><path class="ccls-5" d="M60.6 93.3v4.07a2.79 2.79 0 002.79 2.78h15.49a2.79 2.79 0 012.79 2.78V107"/><path class="ccls-5" d="M60.6 97.56v4.06a2.79 2.79 0 002.79 2.79h15.49a2.78 2.78 0 012.79 2.78v4.06"/><path class="ccls-5" d="M60.6 101.82v4.06a2.78 2.78 0 002.79 2.78h15.49a2.79 2.79 0 012.79 2.79v4.06"/><path class="ccls-5" d="M60.6 106.08v4.06a2.78 2.78 0 002.79 2.78h15.49a2.79 2.79 0 012.79 2.79v4.06"/><path class="ccls-5" d="M60.6 110.34v4.06a2.79 2.79 0 002.79 2.78h15.49a2.79 2.79 0 012.79 2.82v4"/><path class="ccls-5" d="M60.6 114.59v4.06a2.79 2.79 0 002.79 2.79h15.49a2.79 2.79 0 012.79 2.78v2.6"/><path class="ccls-5" d="M60.6 118.85v4.06a2.79 2.79 0 002.79 2.79h15.49M98.44 89.24h1.48a2.79 2.79 0 012.79 2.76v4.06"/><path class="ccls-5" d="M81.8 91.63c0 1.54 1.09 1.87 2.63 1.87h15.49a2.79 2.79 0 012.79 2.79v4.06"/><path class="ccls-5" d="M81.8 91.63L81.64 95a2.79 2.79 0 002.79 2.78h15.49a2.79 2.79 0 012.79 2.78v4.06"/><path class="ccls-5" d="M81.64 95.17v4.06a2.79 2.79 0 002.79 2.77h15.49a2.78 2.78 0 012.79 2.78v4.06"/><path class="ccls-5" d="M81.64 99.43v4.06a2.79 2.79 0 002.79 2.79h15.49a2.78 2.78 0 012.79 2.78v4.06"/><path class="ccls-5" d="M81.64 103.69v4.06a2.78 2.78 0 002.79 2.78h15.49a2.79 2.79 0 012.79 2.79v4.06"/><path class="ccls-5" d="M81.64 108v4a2.79 2.79 0 002.79 2.78h15.49a2.79 2.79 0 012.79 2.79v4.06"/><path class="ccls-5" d="M81.64 112.2v4.07a2.79 2.79 0 002.79 2.78h15.49a2.79 2.79 0 012.79 2.78v4.06"/><path class="ccls-5" d="M81.64 116.46v4.06a2.79 2.79 0 002.79 2.79h15.49a2.78 2.78 0 012.79 2.78v4.06"/><path class="ccls-5" d="M97 127.57h2.89a2.78 2.78 0 012.79 2.78M81.64 120.72v4.06M117.83 92.09h15.49a2.79 2.79 0 012.79 2.79v4.06"/><path class="ccls-5" d="M117.83 96.35h15.49a2.79 2.79 0 012.79 2.78v4.06"/><path class="ccls-5" d="M115 97.82a2.79 2.79 0 002.79 2.79h15.49a2.78 2.78 0 012.79 2.78v4.06"/><path class="ccls-5" d="M115 98v4.06a2.79 2.79 0 002.79 2.79h15.49a2.78 2.78 0 012.79 2.78v4.06"/><path class="ccls-5" d="M115 102.28v4.06a2.78 2.78 0 002.79 2.78h15.49a2.79 2.79 0 012.79 2.79V116"/><path class="ccls-5" d="M115 106.54v4.06a2.79 2.79 0 002.79 2.78h15.49a2.79 2.79 0 012.79 2.78v4.07"/><path class="ccls-5" d="M115 110.79v4.06a2.79 2.79 0 002.79 2.79h15.49a2.79 2.79 0 012.79 2.78v4.06"/><path class="ccls-5" d="M115 115.05v4.06a2.79 2.79 0 002.79 2.79h15.49a2.78 2.78 0 012.79 2.78"/><path class="ccls-5" d="M115 119.31v4.06a2.78 2.78 0 002.79 2.78h5.52M115.04 123.57v5.28M138.89 92.32h15.5a2.79 2.79 0 012.78 2.79v4.06"/><path class="ccls-5" d="M136.11 91.35v2.45a2.77 2.77 0 002.78 2.78h15.5a2.79 2.79 0 012.78 2.79v4.06"/><path class="ccls-5" d="M136.11 94v4.06a2.78 2.78 0 002.78 2.78h15.5a2.79 2.79 0 012.78 2.78v4.07"/><path class="ccls-5" d="M136.11 98.25v4.06a2.78 2.78 0 002.78 2.79h15.5a2.78 2.78 0 012.78 2.78v4.06"/><path class="ccls-5" d="M136.11 102.51v4.06a2.78 2.78 0 002.78 2.79h15.5a2.78 2.78 0 012.78 2.78v4.06"/><path class="ccls-5" d="M136.11 106.77v4.06a2.77 2.77 0 002.78 2.78h15.5a2.79 2.79 0 012.78 2.79v4.06"/><path class="ccls-5" d="M136.11 111v4.06a2.77 2.77 0 002.78 2.78h15.5a2.79 2.79 0 012.78 2.79v4.06"/><path class="ccls-5" d="M136.11 115.29v4.06a2.78 2.78 0 002.78 2.78h15.5a2.79 2.79 0 012.78 2.78V129M136.11 119.54v4.62M178.54 93.44v4.06M157.47 87.87a2.78 2.78 0 002.79 2.78h9.21"/><path class="ccls-5" d="M157.47 88.07v4.06a2.78 2.78 0 002.79 2.78h15.49a2.79 2.79 0 012.79 2.79v4.06"/><path class="ccls-5" d="M157.47 92.32v4.07a2.79 2.79 0 002.79 2.78h15.49a2.79 2.79 0 012.79 2.78V106"/><path class="ccls-5" d="M157.47 96.58v4.06a2.79 2.79 0 002.79 2.79h15.49a2.78 2.78 0 012.79 2.78v4.06"/><path class="ccls-5" d="M157.47 100.84v4.06a2.79 2.79 0 002.79 2.79h15.49a2.78 2.78 0 012.79 2.78v4.06"/><path class="ccls-5" d="M157.47 105.1v4.06a2.78 2.78 0 002.79 2.78h15.49a2.79 2.79 0 012.79 2.79v4.06"/><path class="ccls-5" d="M157.47 109.36v4.06a2.79 2.79 0 002.79 2.78h15.49a2.79 2.79 0 012.79 2.79v4.06"/><path class="ccls-5" d="M157.47 113.61v4.07a2.79 2.79 0 002.79 2.78h15.49c1.54 0 2.7.56 2.7 2.1"/><path class="ccls-5" d="M157.47 117.87v4.06a2.79 2.79 0 002.79 2.79h8.68M186.41 92.32v4.94M178.32 91.88c0 1.54.48 2.79 1.07 2.79h6c.59 0 1.07 1.24 1.07 2.78v4.06"/><path class="ccls-5" d="M178.32 92.08v4.06c0 1.54.48 2.79 1.07 2.79h6c.59 0 1.07 1.24 1.07 2.78v4.06"/><path class="ccls-5" d="M178.32 96.34v4.06c0 1.54.48 2.78 1.07 2.78h6c.59 0 1.07 1.25 1.07 2.79V110"/><path class="ccls-5" d="M178.32 100.6v4.06c0 1.54.48 2.78 1.07 2.78h6c.59 0 1.07 1.25 1.07 2.79v4.06"/><path class="ccls-5" d="M178.32 104.85v4.07c0 1.53.48 2.78 1.07 2.78h6c.59 0 1.07 1.25 1.07 2.78v4.06"/><path class="ccls-5" d="M178.32 109.11v4.06c0 1.54.48 2.79 1.07 2.79h6c.59 0 1.07 1.24 1.07 2.78v1.94"/><path class="ccls-5" d="M178.32 113.37v4.06c0 1.54.48 2.79 1.07 2.79h6M178.32 117.63v4.06"/><path class="ccls-3" d="M191.27 191.76c-2.22 0-12-.42-14-1.2-7.59-3-13.05-11.08-13.05-20.65 0-12.07 8.68-21.85 19.39-21.85a17.52 17.52 0 018.76 2.36"/><path class="ccls-3" d="M166.1 181.37a11.72 11.72 0 01-4.26-.8c-5.1-2-8.76-7.45-8.76-13.87 0-8.11 5.83-14.68 13-14.68a7.49 7.49 0 013.94 1M196.43 191.18a26.85 26.85 0 01-5.16 0 15.9 15.9 0 01-5.8-1.09c-6.95-2.71-11.94-10.15-11.94-18.9 0-11 7.94-20 17.74-20a16 16 0 018 2.15l1.61 1.08"/><path class="ccls-3" d="M172.33 187.66a17 17 0 01-7.57 1.79c-10.74 0-19.45-10.19-19.45-22.75s8.71-22.76 19.45-22.76a16.56 16.56 0 011.73.09"/><path class="ccls-3" d="M137.81 163.65c1.67-15.64 12.41-27.7 25.4-27.7a20.71 20.71 0 012.62.17M141.61 185.14a37.44 37.44 0 01-4-15.21M194.14 182.79a11.69 11.69 0 117.71-21.51"/><path class="ccls-2" d="M129.45 135.19v1.74H131v3a.71.71 0 00.71.71h2.06a.71.71 0 00.71-.71v-2.85h1.6v-1.89zM157.92 131.59v1.55h1.41v2.67a.63.63 0 00.63.63h1.83a.63.63 0 00.63-.63v-2.53h1.43v-1.69zM171.9 131.07v1.55h1.41v2.67a.63.63 0 00.63.63h1.83a.63.63 0 00.63-.63v-2.53h1.43v-1.69zM83.09 136v1.74h1.58v3a.71.71 0 00.71.71h2.05a.71.71 0 00.71-.71v-2.84h1.6V136zM66.85 135.61v1.74h1.58v3a.7.7 0 00.71.7h2.06a.7.7 0 00.71-.7v-2.85h1.6v-1.9zM45.38 132.58v1.74H47v3a.71.71 0 00.71.71h2a.71.71 0 00.71-.71v-2.84H52v-1.9zM31.16 132.89v1.74h1.58v3a.71.71 0 00.71.71h2.06a.71.71 0 00.71-.71v-2.84h1.6v-1.9zM23 131.94v1.74h1.58v3a.71.71 0 00.71.71h2.05a.71.71 0 00.71-.71v-2.84h1.6v-1.9zM15.25 129.19v2.34h1.26v2.4a.57.57 0 00.57.57h1.65a.56.56 0 00.56-.57v-2.27h1.29v-.57zM116.86 133.81l-.1 1.73 1.58.1-.19 3a.72.72 0 00.67.75l2.05.12a.71.71 0 00.75-.66l.17-2.85 1.6.1.12-1.89zM143.65 135.25v1.5l1.36-.05.08 2.59a.61.61 0 00.63.59l1.78-.06a.61.61 0 00.59-.63l-.08-2.45h1.38l-.06-1.64z"/></svg><svg id="cat2" data-name="Слой 1" viewBox="0 0 317.48 239.92" xmlns="http://www.w3.org/2000/svg"><defs><style>.dcls-1,.dcls-2,.dcls-3,.dcls-4,.dcls-5,.dcls-6,.dcls-7{fill:none;stroke:#fff;stroke-miterlimit:10}.dcls-1,.dcls-3{stroke-width:2px}.dcls-3,.dcls-5,.dcls-6,.dcls-7{stroke-linecap:round}.dcls-4,.dcls-6{stroke-width:.5px}.dcls-7{stroke-width:.75px}</style></defs><path class="dcls-1" d="M230.08 106.71l5.68 39.74a6.4 6.4 0 01-5.52 7.25c-9.41 1.17-27.5 4.89-43.63 16.69A10.55 10.55 0 00183 182.9l1.9 4.67a.15.15 0 00.15.09l126.85-13.18a4.61 4.61 0 003.87-3l.5-1.42a3.57 3.57 0 00-1.46-4.21l-1.12-.69-8.8-58.73a5.21 5.21 0 00-5.5-4.43zM169.69 113.35s-10.84 28.75-8.18 60.38l-46.72 13.85c-16.2 4.8-16.89 27.63-.94 33.22a36.22 36.22 0 0012.05 1.82s27.74-4.33 52.64-12.87"/><path class="dcls-1" d="M299.39 102L296 99a17 17 0 00-12.68-4L169.7 106.09a3.39 3.39 0 00-2.27 5.55l2.83 3.36a8.42 8.42 0 006.45 3h5.15M182.24 179.04l131.45-13.93M213.05 118v29.86l-27.51 1a1.58 1.58 0 01-1.62-1.82l3-19.35a10.8 10.8 0 0110.3-9.16zM197.25 163.81v-9.25a1.25 1.25 0 011.18-1.24l14.62-.82v4.89M220.64 155.38v19.59"/><path class="dcls-1" d="M201.54 118.4l-1.76 26.41h-9.49a3.83 3.83 0 01-3.75-3.06l-1-5M204.2 118.4l-1.11 25.14 3.77-2.57a8.55 8.55 0 003.71-7.52l-.84-15M230.08 106.71l1.2-.08a8.57 8.57 0 019.12 7.72l2.51 25.76 1.47 3.48a6.33 6.33 0 01.51 2.54l-.21 26M183.9 153.38h4A1.17 1.17 0 01189 155l-5.13 14.14zM241.79 181.76l-54.13 20.87c-8.73 3.37-14.11 12.48-12.23 21.64a9.82 9.82 0 003.11 5.87c5.25 4.2 19.92 7.43 25.81 8.6a9.36 9.36 0 004.81-.31l74-24.68a18.32 18.32 0 0012.32-15 50.08 50.08 0 00.41-5.36 12.42 12.42 0 00-12.41-12.68h-29.84"/><path class="dcls-1" d="M204.35 238.74c-6-1.8-9.22-11.25-7.1-13.91s2.75-7.74 2.75-7.74c-.89-6.86 13.05-10.18 13.05-10.18s18.8-12.38 27.65-13a37.06 37.06 0 0014.82-4.2 25.07 25.07 0 0111.72-1.1c6.86.88 13.71-2.22 13.71-2.22s8.81-4.37 14.47 3.46"/><path class="dcls-2" d="M178.32 211.93l21.68 5.16M175.06 220.41l22.19 4.42M182.24 205.78l20.85 4.02M195.24 199.71l22.67 4.17M212.08 193.22l16.43 4.84M226.47 187.67l22.89 4.55M246.01 181.33l31.41 6.25M178.54 230.14l19.93 3.41"/><path class="dcls-1" d="M179.65 187.58l-2.88-8.58z"/><path class="dcls-3" d="M184.95 187.67l-5.3-.09"/><path class="dcls-2" d="M152.04 176.54l14.59 5.92M140.4 179.99l16.24 5.14M129.19 183.31l16.39 6.63M117.99 186.63l18.35 6.05M109.75 189.94l17.42 5.7M104.54 195.64l17.25 6.16M102.25 202.93l17.21 6.87M103.9 211.93l16.47 3.55"/><path class="dcls-1" d="M202.62 211a9.29 9.29 0 014.85-1.38c6.2 0 11.23 6.29 11.23 14s-5 14-11.23 14c-5.24 0-9.64-4.5-10.88-10.58"/><path class="dcls-2" d="M208.23 209.16c4.64 1.72 8 7.09 8 13.46 0 7.75-5 14-11.22 14"/><ellipse class="dcls-2" cx="209.04" cy="224.5" rx="2.46" ry="3.21"/><ellipse class="dcls-4" cx="207.58" cy="224.5" rx="3.92" ry="4.09"/><ellipse class="dcls-1" cx="232.36" cy="214.17" rx="11.9" ry="14.88"/><path class="dcls-2" d="M234.19 199.28c4.38 2.19 7.48 7.56 7.48 13.83 0 8.22-5.33 14.88-11.9 14.88a9.62 9.62 0 01-2.4-.3"/><ellipse class="dcls-2" cx="234.02" cy="215.1" rx="2.61" ry="3.4"/><ellipse class="dcls-4" cx="232.47" cy="215.1" rx="4.15" ry="4.33"/><ellipse class="dcls-1" cx="258.55" cy="205.06" rx="11.87" ry="14.85"/><path class="dcls-2" d="M260.21 190.13c4.46 2.13 7.63 7.54 7.63 13.87 0 8.2-5.31 14.85-11.87 14.85a9.49 9.49 0 01-2.39-.3"/><ellipse class="dcls-2" cx="260.21" cy="205.99" rx="2.6" ry="3.39"/><ellipse class="dcls-4" cx="258.67" cy="205.99" rx="4.14" ry="4.32"/><ellipse class="dcls-1" cx="283.37" cy="199.34" rx="10.6" ry="13.26"/><path class="dcls-2" d="M286.37 186.9c3.17 2.3 5.3 6.58 5.3 11.49 0 7.33-4.75 13.27-10.6 13.27a8.85 8.85 0 01-2.72-.44"/><ellipse class="dcls-2" cx="284.85" cy="200.17" rx="2.33" ry="3.03"/><ellipse class="dcls-4" cx="283.48" cy="200.17" rx="3.7" ry="3.86"/><path class="dcls-1" d="M178.54 185.13l-34.84 12.05-12.98-2.61M144.53 208.46l-.83-11.28z"/><path class="dcls-3" d="M155.16 193.22l11.47.64 31.2 4.49"/><path class="dcls-1" d="M139.72 197.18l.68 22.25M125.87 197.18v24.41a.57.57 0 01-.9.47 11.6 11.6 0 01-2.4-2.44c-6.58-8.81-2.29-21.53 8.13-25L176.77 179l-15.26-5.31"/><path class="dcls-3" d="M164.94 194.36v11.63l13.6 3.76M144.53 208.46l20.41-2.47M244.38 143.59l47.29-4.59 17.85-1.73M293.98 167.2l-2.31-28.2"/><path class="dcls-3" d="M270.42 141.06l.63 14.29.62 14.21M310.69 149l-39.73 4.38M277.33 113.35l17.09-1.22a1.53 1.53 0 011.64 1.33l1.72 13.34a1.54 1.54 0 01-1.39 1.73L279.78 130a1.55 1.55 0 01-1.66-1.29l-2.2-13.6a1.55 1.55 0 011.41-1.76z"/><path class="dcls-1" d="M146.94 117.99L163.21 139M131.3 97.8l5.89 7.61M114.71 100.33L57.26 18.2a6.13 6.13 0 01-1.1-3.92A4.32 4.32 0 0162 10.5a8.86 8.86 0 013.94 2.89l60 77.4M219.67 101.22s9.94 2.21 10.41 5.49l-34.38 3.57a20.13 20.13 0 00-18 18.65c-1.12 16.52-2.3 40.07-.49 46.35 0 0-16.59-2.43-16.81-12.6l-5.24-4.53-35.27-50.42M66.42 31.3a16.35 16.35 0 116.77-8.53M68.32 34A17.91 17.91 0 1143.64 8"/><circle class="dcls-1" cx="61.42" cy="15.97" r="2.25"/><path class="dcls-1" d="M112.44 114.22l28 39.42A29.34 29.34 0 00158 165.28l3.07.68M59.18 39.35l47.97 67.44"/><circle class="dcls-3" cx="86.63" cy="28.63" r="5.2"/><path class="dcls-3" d="M216.6 84.23l-11.45.8-13.12 21.58"/><path class="dcls-5" d="M91.83 28.63l124.77 55.6"/><path class="dcls-3" d="M86.63 33.83L205.15 85l-2.06 21.44 13.51-22.21a1.19 1.19 0 012.2.61v22.71"/><path class="dcls-5" d="M160.02 74.27l41.07 17.44M151.69 68.47l-61.62-23.9 59.86 25.42M203.09 88.42l-41.98-16.29"/><path class="dcls-3" d="M51.63 149.38L74.08 135l80.31-68.59a.35.35 0 01.48 0l6.24 5.68-4.47 7.15-4.6.45-71.2 62a17.66 17.66 0 01-4.56 2.88l-14.86 6.51"/><ellipse class="dcls-3" cx="144.19" cy="109.46" rx="7.85" ry="8.94"/><circle class="dcls-1" cx="144.5" cy="108.69" r="3.28"/><path class="dcls-2" d="M150.83 114.22l13.94 14.28"/><path class="dcls-3" d="M102.27 99.93L52.04 139M141.21 77.69l-2.46-2.83a2.53 2.53 0 00-3.45-.35L121.41 85M48.28 144.61A12.24 12.24 0 0035.64 150l-14.32 22.38-.77-.21a5.57 5.57 0 00-6.08 2.26 37.24 37.24 0 01-5.07 6c-2.4 2.25-5.18 4.1-8.26 4.57a.15.15 0 000 .3l13.38 2.39a10.34 10.34 0 009.23-2.94s18.84 12.17 34.08 1c0 0 9.6-12.85 3.36-21.45-5.66-7.8-8.57-10.87-10.29-17.19a3.4 3.4 0 00-2.62-2.5z"/><path class="dcls-3" d="M62.78 151.6s3.89 7.36 7 10.47 3.17 17.09-11.95 23.63M50.89 147.06l-20.75 29.88a11.3 11.3 0 01-2 2.21 11.13 11.13 0 01-8.34 2.49l-10.4-1.17M50.06 188.76l-21.96-9.61"/><path class="dcls-3" d="M36.22 149.19a12.3 12.3 0 01-1.22-5.45c0-6 4-10.77 9-10.77s9 4.82 9 10.77a12.41 12.41 0 01-1.33 5.64"/><path class="dcls-3" d="M36.51 148.55a10.67 10.67 0 01-.13-1.71c0-5 3.4-9.09 7.59-9.09s7.6 4.07 7.6 9.09M40.51 133l.74-10.36 5.93-.32a2.54 2.54 0 012.21 1l3.07 4.08-6.05 6"/><path class="dcls-5" d="M42.59 24.87v97.74M45.69 28.63l1.49 93.66"/><path class="dcls-3" d="M66.71 127.59v.13a4.4 4.4 0 005.39 4 13.11 13.11 0 003.69-1.32L91 120.57"/><path class="dcls-5" d="M105.8 104.89l-30.01 25.52"/><circle class="dcls-6" cx="86.63" cy="51.52" r="1.49"/><circle class="dcls-6" cx="97.78" cy="66.77" r="1.49"/><circle class="dcls-6" cx="109.23" cy="82.42" r="1.49"/><path class="dcls-7" d="M212.88 83.81a2.33 2.33 0 114.65-.34M204.89 84.13a2.33 2.33 0 114.65-.34"/></svg><svg id="cat2-1" data-name="Слой 1" viewBox="0 0 317.48 239.92" xmlns="http://www.w3.org/2000/svg"><defs><style>.ecls-1,.ecls-2,.ecls-3,.ecls-4,.ecls-5,.ecls-6,.ecls-7{fill:none;stroke:#f1811a;stroke-miterlimit:10}.ecls-1,.ecls-3{stroke-width:2px}.ecls-3,.ecls-5,.ecls-6,.ecls-7{stroke-linecap:round}.ecls-4,.ecls-6{stroke-width:.5px}.ecls-7{stroke-width:.75px}</style></defs><path class="ecls-1" d="M230.08 106.71l5.68 39.74a6.4 6.4 0 01-5.52 7.25c-9.41 1.17-27.5 4.89-43.63 16.69A10.55 10.55 0 00183 182.9l1.9 4.67a.15.15 0 00.15.09l126.85-13.18a4.61 4.61 0 003.87-3l.5-1.42a3.57 3.57 0 00-1.46-4.21l-1.12-.69-8.8-58.73a5.21 5.21 0 00-5.5-4.43zM169.69 113.35s-10.84 28.75-8.18 60.38l-46.72 13.85c-16.2 4.8-16.89 27.63-.94 33.22a36.22 36.22 0 0012.05 1.82s27.74-4.33 52.64-12.87"/><path class="ecls-1" d="M299.39 102L296 99a17 17 0 00-12.68-4L169.7 106.09a3.39 3.39 0 00-2.27 5.55l2.83 3.36a8.42 8.42 0 006.45 3h5.15M182.24 179.04l131.45-13.93M213.05 118v29.86l-27.51 1a1.58 1.58 0 01-1.62-1.82l3-19.35a10.8 10.8 0 0110.3-9.16zM197.25 163.81v-9.25a1.25 1.25 0 011.18-1.24l14.62-.82v4.89M220.64 155.38v19.59"/><path class="ecls-1" d="M201.54 118.4l-1.76 26.41h-9.49a3.83 3.83 0 01-3.75-3.06l-1-5M204.2 118.4l-1.11 25.14 3.77-2.57a8.55 8.55 0 003.71-7.52l-.84-15M230.08 106.71l1.2-.08a8.57 8.57 0 019.12 7.72l2.51 25.76 1.47 3.48a6.33 6.33 0 01.51 2.54l-.21 26M183.9 153.38h4A1.17 1.17 0 01189 155l-5.13 14.14zM241.79 181.76l-54.13 20.87c-8.73 3.37-14.11 12.48-12.23 21.64a9.82 9.82 0 003.11 5.87c5.25 4.2 19.92 7.43 25.81 8.6a9.36 9.36 0 004.81-.31l74-24.68a18.32 18.32 0 0012.32-15 50.08 50.08 0 00.41-5.36 12.42 12.42 0 00-12.41-12.68h-29.84"/><path class="ecls-1" d="M204.35 238.74c-6-1.8-9.22-11.25-7.1-13.91s2.75-7.74 2.75-7.74c-.89-6.86 13.05-10.18 13.05-10.18s18.8-12.38 27.65-13a37.06 37.06 0 0014.82-4.2 25.07 25.07 0 0111.72-1.1c6.86.88 13.71-2.22 13.71-2.22s8.81-4.37 14.47 3.46"/><path class="ecls-2" d="M178.32 211.93l21.68 5.16M175.06 220.41l22.19 4.42M182.24 205.78l20.85 4.02M195.24 199.71l22.67 4.17M212.08 193.22l16.43 4.84M226.47 187.67l22.89 4.55M246.01 181.33l31.41 6.25M178.54 230.14l19.93 3.41"/><path class="ecls-1" d="M179.65 187.58l-2.88-8.58z"/><path class="ecls-3" d="M184.95 187.67l-5.3-.09"/><path class="ecls-2" d="M152.04 176.54l14.59 5.92M140.4 179.99l16.24 5.14M129.19 183.31l16.39 6.63M117.99 186.63l18.35 6.05M109.75 189.94l17.42 5.7M104.54 195.64l17.25 6.16M102.25 202.93l17.21 6.87M103.9 211.93l16.47 3.55"/><path class="ecls-1" d="M202.62 211a9.29 9.29 0 014.85-1.38c6.2 0 11.23 6.29 11.23 14s-5 14-11.23 14c-5.24 0-9.64-4.5-10.88-10.58"/><path class="ecls-2" d="M208.23 209.16c4.64 1.72 8 7.09 8 13.46 0 7.75-5 14-11.22 14"/><ellipse class="ecls-2" cx="209.04" cy="224.5" rx="2.46" ry="3.21"/><ellipse class="ecls-4" cx="207.58" cy="224.5" rx="3.92" ry="4.09"/><ellipse class="ecls-1" cx="232.36" cy="214.17" rx="11.9" ry="14.88"/><path class="ecls-2" d="M234.19 199.28c4.38 2.19 7.48 7.56 7.48 13.83 0 8.22-5.33 14.88-11.9 14.88a9.62 9.62 0 01-2.4-.3"/><ellipse class="ecls-2" cx="234.02" cy="215.1" rx="2.61" ry="3.4"/><ellipse class="ecls-4" cx="232.47" cy="215.1" rx="4.15" ry="4.33"/><ellipse class="ecls-1" cx="258.55" cy="205.06" rx="11.87" ry="14.85"/><path class="ecls-2" d="M260.21 190.13c4.46 2.13 7.63 7.54 7.63 13.87 0 8.2-5.31 14.85-11.87 14.85a9.49 9.49 0 01-2.39-.3"/><ellipse class="ecls-2" cx="260.21" cy="205.99" rx="2.6" ry="3.39"/><ellipse class="ecls-4" cx="258.67" cy="205.99" rx="4.14" ry="4.32"/><ellipse class="ecls-1" cx="283.37" cy="199.34" rx="10.6" ry="13.26"/><path class="ecls-2" d="M286.37 186.9c3.17 2.3 5.3 6.58 5.3 11.49 0 7.33-4.75 13.27-10.6 13.27a8.85 8.85 0 01-2.72-.44"/><ellipse class="ecls-2" cx="284.85" cy="200.17" rx="2.33" ry="3.03"/><ellipse class="ecls-4" cx="283.48" cy="200.17" rx="3.7" ry="3.86"/><path class="ecls-1" d="M178.54 185.13l-34.84 12.05-12.98-2.61M144.53 208.46l-.83-11.28z"/><path class="ecls-3" d="M155.16 193.22l11.47.64 31.2 4.49"/><path class="ecls-1" d="M139.72 197.18l.68 22.25M125.87 197.18v24.41a.57.57 0 01-.9.47 11.6 11.6 0 01-2.4-2.44c-6.58-8.81-2.29-21.53 8.13-25L176.77 179l-15.26-5.31"/><path class="ecls-3" d="M164.94 194.36v11.63l13.6 3.76M144.53 208.46l20.41-2.47M244.38 143.59l47.29-4.59 17.85-1.73M293.98 167.2l-2.31-28.2"/><path class="ecls-3" d="M270.42 141.06l.63 14.29.62 14.21M310.69 149l-39.73 4.38M277.33 113.35l17.09-1.22a1.53 1.53 0 011.64 1.33l1.72 13.34a1.54 1.54 0 01-1.39 1.73L279.78 130a1.55 1.55 0 01-1.66-1.29l-2.2-13.6a1.55 1.55 0 011.41-1.76z"/><path class="ecls-1" d="M146.94 117.99L163.21 139M131.3 97.8l5.89 7.61M114.71 100.33L57.26 18.2a6.13 6.13 0 01-1.1-3.92A4.32 4.32 0 0162 10.5a8.86 8.86 0 013.94 2.89l60 77.4M219.67 101.22s9.94 2.21 10.41 5.49l-34.38 3.57a20.13 20.13 0 00-18 18.65c-1.12 16.52-2.3 40.07-.49 46.35 0 0-16.59-2.43-16.81-12.6l-5.24-4.53-35.27-50.42M66.42 31.3a16.35 16.35 0 116.77-8.53M68.32 34A17.91 17.91 0 1143.64 8"/><circle class="ecls-1" cx="61.42" cy="15.97" r="2.25"/><path class="ecls-1" d="M112.44 114.22l28 39.42A29.34 29.34 0 00158 165.28l3.07.68M59.18 39.35l47.97 67.44"/><circle class="ecls-3" cx="86.63" cy="28.63" r="5.2"/><path class="ecls-3" d="M216.6 84.23l-11.45.8-13.12 21.58"/><path class="ecls-5" d="M91.83 28.63l124.77 55.6"/><path class="ecls-3" d="M86.63 33.83L205.15 85l-2.06 21.44 13.51-22.21a1.19 1.19 0 012.2.61v22.71"/><path class="ecls-5" d="M160.02 74.27l41.07 17.44M151.69 68.47l-61.62-23.9 59.86 25.42M203.09 88.42l-41.98-16.29"/><path class="ecls-3" d="M51.63 149.38L74.08 135l80.31-68.59a.35.35 0 01.48 0l6.24 5.68-4.47 7.15-4.6.45-71.2 62a17.66 17.66 0 01-4.56 2.88l-14.86 6.51"/><ellipse class="ecls-3" cx="144.19" cy="109.46" rx="7.85" ry="8.94"/><circle class="ecls-1" cx="144.5" cy="108.69" r="3.28"/><path class="ecls-2" d="M150.83 114.22l13.94 14.28"/><path class="ecls-3" d="M102.27 99.93L52.04 139M141.21 77.69l-2.46-2.83a2.53 2.53 0 00-3.45-.35L121.41 85M48.28 144.61A12.24 12.24 0 0035.64 150l-14.32 22.38-.77-.21a5.57 5.57 0 00-6.08 2.26 37.24 37.24 0 01-5.07 6c-2.4 2.25-5.18 4.1-8.26 4.57a.15.15 0 000 .3l13.38 2.39a10.34 10.34 0 009.23-2.94s18.84 12.17 34.08 1c0 0 9.6-12.85 3.36-21.45-5.66-7.8-8.57-10.87-10.29-17.19a3.4 3.4 0 00-2.62-2.5z"/><path class="ecls-3" d="M62.78 151.6s3.89 7.36 7 10.47 3.17 17.09-11.95 23.63M50.89 147.06l-20.75 29.88a11.3 11.3 0 01-2 2.21 11.13 11.13 0 01-8.34 2.49l-10.4-1.17M50.06 188.76l-21.96-9.61"/><path class="ecls-3" d="M36.22 149.19a12.3 12.3 0 01-1.22-5.45c0-6 4-10.77 9-10.77s9 4.82 9 10.77a12.41 12.41 0 01-1.33 5.64"/><path class="ecls-3" d="M36.51 148.55a10.67 10.67 0 01-.13-1.71c0-5 3.4-9.09 7.59-9.09s7.6 4.07 7.6 9.09M40.51 133l.74-10.36 5.93-.32a2.54 2.54 0 012.21 1l3.07 4.08-6.05 6"/><path class="ecls-5" d="M42.59 24.87v97.74M45.69 28.63l1.49 93.66"/><path class="ecls-3" d="M66.71 127.59v.13a4.4 4.4 0 005.39 4 13.11 13.11 0 003.69-1.32L91 120.57"/><path class="ecls-5" d="M105.8 104.89l-30.01 25.52"/><circle class="ecls-6" cx="86.63" cy="51.52" r="1.49"/><circle class="ecls-6" cx="97.78" cy="66.77" r="1.49"/><circle class="ecls-6" cx="109.23" cy="82.42" r="1.49"/><path class="ecls-7" d="M212.88 83.81a2.33 2.33 0 114.65-.34M204.89 84.13a2.33 2.33 0 114.65-.34"/></svg><svg id="cat3" data-name="Слой 1" viewBox="0 0 390.33 218.77" xmlns="http://www.w3.org/2000/svg"><defs><style>.fcls-1,.fcls-2,.fcls-3,.fcls-4,.fcls-5{fill:none;stroke:#fff;stroke-miterlimit:10}.fcls-1,.fcls-3{stroke-width:2px}.fcls-2{stroke-width:.5px}.fcls-3,.fcls-5{stroke-linecap:round}</style></defs><path class="fcls-1" d="M307.72 120.31L177.88 62.7v-5.55c-13.18-5.78-29.42-12-40.63-16.13a79.93 79.93 0 00-31.39-4.9c-24.33 1.11-57.31 5.71-67.38 7.15-8.63 1.23-10 3.84-10 5.44a9.59 9.59 0 01-.48 3.61A103.91 103.91 0 0022.31 79M29.61 46.38s1.27-15.7 28.61-17.91"/><ellipse class="fcls-1" cx="67.63" cy="24.54" rx="9.41" ry="11.49"/><ellipse class="fcls-2" cx="67.63" cy="24.54" rx="6.39" ry="7.8"/><path class="fcls-3" d="M70.25 36s4.57-.76 9.52-6.06a18.62 18.62 0 0113.56-5.81c9.86-.06 25.46.84 37.36 6.13l169.63 77.44s8.94.92 7.4 21.89v59.22L157.4 161.76a39.35 39.35 0 00-33.11 9.32 109.2 109.2 0 00-14.53 16 17.54 17.54 0 01-14 7H23.69a10.39 10.39 0 01-9.78-6.86c-2.65-7.31-6-18.47-3.8-23.06l-4.11.19a2.36 2.36 0 01-2.47-2.53l2.49-34a10.39 10.39 0 0110.36-9.63H31.7s3.08 0 3.7 2.1"/><path class="fcls-3" d="M113.85 74.11s-56.55-1.74-88.94 4.06a14.94 14.94 0 00-11.72 13.52l-2.95 28.2"/><path class="fcls-1" d="M306.45 114.52s10.55-6.18 10.55 8.94 1.85 67.23 1.85 67.23l66.92 11.05V174a3.29 3.29 0 00-1.56-2.8l-.4-.25a3.76 3.76 0 01-1.78-3.55c.54-5.91.92-21.31-9.52-23.3l-55.05-25.44"/><rect class="fcls-1" x="80.74" y="165.63" width="6.43" height="19.16" rx="2.88" transform="rotate(3.94 84.035 175.245)"/><rect class="fcls-1" x="70.71" y="165.63" width="6.43" height="19.16" rx="2.88" transform="rotate(3.94 73.995 175.3)"/><rect class="fcls-1" x="60.68" y="165.63" width="6.43" height="19.16" rx="2.88" transform="rotate(3.94 63.95 175.208)"/><rect class="fcls-1" x="50.65" y="165.63" width="6.43" height="19.16" rx="2.88" transform="rotate(3.94 53.91 175.262)"/><rect class="fcls-1" x="40.62" y="165.63" width="6.43" height="19.16" rx="2.88" transform="rotate(3.94 43.87 175.317)"/><rect class="fcls-1" x="30.59" y="165.63" width="6.43" height="19.16" rx="2.88" transform="rotate(3.94 33.824 175.226)"/><rect class="fcls-1" x="20.56" y="165.63" width="6.43" height="19.16" rx="2.88" transform="rotate(3.94 23.784 175.28)"/><path class="fcls-3" d="M73.79 133.16L29.92 135a3 3 0 01-3-3v-7.25a3 3 0 013-3l43.87-1.86a3 3 0 013 3v7.24a3 3 0 01-3 3.03zM75 119.89s.77-3.68 4-4c1.88-.18 11.13-.41 19-.57a87.56 87.56 0 0122.46 2.44l40.12 9.69"/><circle class="fcls-3" cx="96.8" cy="97.09" r="3.33"/><circle class="fcls-3" cx="21.77" cy="99" r="3.33"/><circle class="fcls-3" cx="34.74" cy="97.81" r="5"/><circle class="fcls-3" cx="84.41" cy="96.88" r="5"/><path class="fcls-3" d="M13.5 89.76s7.62-7 31.56-3.93M69.32 86c22-6.4 44.7-1.65 53.25.93"/><path class="fcls-1" d="M24.91 78.17l5.27-23a8.66 8.66 0 017.1-6.62l25.47-4a2.53 2.53 0 012.83 3.18L58 74.76M61 74.6l7.48-26.12a8.23 8.23 0 017.72-6l34.53-.74a5.11 5.11 0 015 6.62l-7.9 25.47M149.92 51.91l-9.22-3a15.14 15.14 0 00-19.39 11l-2 8.71a7 7 0 004.69 8.24l23.45 7.33zM160.61 71.64l2.56 2.12a9.11 9.11 0 013.3 7.24l-1.34 60a11 11 0 01-4.27 8.48l-3.54 2.74M169.86 73.87l3.51 2.32a9.34 9.34 0 014.18 8l-1.35 55.29a18.68 18.68 0 01-4.66 11.88l-1.68 1.9"/><circle class="fcls-4" cx="161.22" cy="73.09" r="2.57"/><circle class="fcls-4" cx="157.32" cy="151.63" r="2.57"/><circle class="fcls-4" cx="169.86" cy="153.27" r="2.57"/><circle class="fcls-4" cx="170.69" cy="74.94" r="2.57"/><ellipse class="fcls-1" cx="215.51" cy="98.88" rx="6.17" ry="11.24"/><ellipse class="fcls-1" cx="240.28" cy="108.4" rx="6.17" ry="10.93"/><ellipse class="fcls-1" cx="265.06" cy="118.13" rx="5.24" ry="9.88"/><ellipse class="fcls-1" cx="289.84" cy="127.95" rx="4.27" ry="8.06"/><ellipse class="fcls-1" cx="344.66" cy="148.97" rx="4.01" ry="7.58"/><ellipse class="fcls-1" cx="363.85" cy="156.55" rx="3.76" ry="7.1"/><path class="fcls-1" d="M307.9 185.44l10.92 5.25"/><path class="fcls-4" d="M176.36 132.69l130.09 34.87M176.36 121.38l131.54 38.16M177.02 105.98l130.88 45.65M176.36 95.84l131.36 48.28M294.02 129.61l13.88 5.41M270.3 120.36l15.27 5.96M246.36 111.03l13.46 5.25M221.57 101.37l12.55 4.89M177.55 84.2l31.78 12.39M293.28 123.19l14.44 6.43M269.62 112.65l18.03 8.03M245.04 101.7l17.48 7.79M219.66 90.4l17.97 8M177.55 71.64l36.15 16.1"/><path class="fcls-1" d="M122.57 86.97l43.49 12.52"/><path class="fcls-5" d="M318.14 170.62l67.6 17.45M317.88 162.31l67.86 19.43M317.65 154.76l68.09 22.82M317.42 146.58l66.36 24.39M367.63 158.73l14.55 6.04M348.55 150.81l11.54 4.79M317.2 137.8l23.44 9.73M367.14 152.51l14.91 6.27M347.88 144.42l13.9 5.84M317.06 131.48l25.37 10.65"/><path class="fcls-3" d="M316.97 123.46L381 152.97M209.34 3.8l176.4 105.81M149.92 1l239.41 127.02"/><path class="fcls-1" d="M217.82 8.88l.15 27.3M322.45 71.64l.68 21.26M189.85 30.01l104.26 59.75v15.13M276.45 79.64v16.94"/><circle class="fcls-1" cx="187.83" cy="31.32" r="2.85"/><circle class="fcls-1" cx="225.99" cy="53.16" r="2.85"/><path class="fcls-1" d="M187.83 34.17l.73 22.53M237.94 79.25s1.42-8.12 6.86-6.16c4 1.43 4.47 6.9 2.93 10.63"/><path class="fcls-1" d="M270.37 94.05v-4.61a11.27 11.27 0 00-5.91-9.91l-18-9.74-1.65 3.3M224.14 54.78a15.91 15.91 0 01-2.47 6.54v9.3l8.64 4.32-1-13.62s-5.17-3.86-5.17-6.54zM96 24.15a12.68 12.68 0 019.15-9.87c8-2.16 17.58.62 22.82-1.23 4.74-1.68 14.69-2.59 20.36-.7a1.66 1.66 0 011 2.23l-2.12 4.83a.63.63 0 00.58.89c3 0 12.18.21 14.19 4.24l3.11 7.8 5.39 2.84a2 2 0 01.9 2.53L168 45.44l9.06-1.78a3 3 0 011.76.19l14.47 6.46-.51 6.94 2.87-2.47.42-2.23a1.31 1.31 0 011.28-1.06h5a2.1 2.1 0 011.36.49l1.47 1.18h2.42a2.79 2.79 0 012.47 1.5l.25.48.82 1.56 6.71 4.46-.54 8"/><path class="fcls-3" d="M107.56 5.03l20.36 8.02M119.1 13.62l-11.54-8.59"/><path class="fcls-1" d="M105.1 14.28l-37.47-1.23"/><path class="fcls-3" d="M365.7 113.27s-2.76-6.8-7.09-1.55-5.71 7.11-5.71 7.11l2 13.57 4.68 1.7 5.19-7.1-2.86-13.53"/><path class="fcls-3" d="M333.78 113.27a12.27 12.27 0 018.48-4.15c5.24-.16 20.66.61 20.66.61"/><path class="fcls-1" d="M329.47 124.24l6-6.11 20.59-7.76M363.85 124.84l-24.83-15.11"/><path class="fcls-1" d="M339.02 110.92l-3.55 7.21 4.92 3.78 2.37-1.6-1.35-9.13"/><path class="fcls-1" d="M335.47 127l3.65-.62 1.27-4.48 2.37-1.6a23.13 23.13 0 012.58 4.53l8.33 4.78 1.23 2.78 4.68 1.7 3.34 1.9 2.78 2.21h.74a2.5 2.5 0 012.5 2.5v1.77M308.52 113.66s3.05-5.71 5.83-4 3.08 9.07 3.08 9.07"/><path class="fcls-1" d="M312.4 109.49s4-4.23 7.5.24c1.15 1.47.54 3.94.43 5.7a28.29 28.29 0 01-.43 3.55M320.33 115.43l11.97 5.93M319.9 109.73l15.57 8.4M335.47 127.01v-8.88M210.37 55.14l12.77 3.42M195.16 59.2s9.89-3.88 9.82 5M89 197.8l27.86 1.36M385.74 201.74l-4.17 9a8.56 8.56 0 01-7.76 4.95h-4.87M122.66 204.58a16 16 0 01-5.8-5.42h-.22M138.34 205.23c3.11-1.4 6.27-3.36 8.08-6.22l159.17 13.79M64.17 201.83c-3-2-4.46-5-5.51-8M91.32 194.08a17.42 17.42 0 01-7.16 8.76M176.39 206.76a16.62 16.62 0 01-2.89-5.11M193.58 207.46a15.29 15.29 0 01-4-5M211.15 204.62a14.23 14.23 0 01-4 3.73"/><path class="fcls-3" d="M1 199.01l367.94 16.66M1 207.34l381.5 10.43M161.9 68.41v-4.89A1.63 1.63 0 01164 62l5.74 1.73a3.69 3.69 0 012.61 3.64l-1.66 55.51M162.94 147.37a23.57 23.57 0 0010.77 1"/><path class="fcls-1" d="M108.49 100.63s-4.32 12.34-3.39 60.45M10.11 164.16h103.22a13.24 13.24 0 0111.47-4.7l20.56 2"/><path class="fcls-3" d="M77.74 148.13h14.1M11.19 148.13h11.12"/><path class="fcls-5" d="M96.7 91.13a25.25 25.25 0 01-8.81-1.65 10.7 10.7 0 00-3.48-.76 8.53 8.53 0 100 17.06 15 15 0 004.58-1 17.65 17.65 0 015.9-1h2.85a6.34 6.34 0 006.35-6.34 6.35 6.35 0 00-6.35-6.35zM23 104.92a25.57 25.57 0 018.9 1.11 10.59 10.59 0 003.52.56 8.54 8.54 0 10-1-17 14.82 14.82 0 00-4.51 1.26A17.74 17.74 0 0124 92.14l-2.85.18a6.34 6.34 0 00-6 6.71 6.34 6.34 0 006.72 6z"/></svg><svg id="cat3-1" data-name="Слой 1" viewBox="0 0 390.33 218.77" xmlns="http://www.w3.org/2000/svg"><defs><style>.gcls-1,.gcls-2,.gcls-3,.gcls-4,.gcls-5{fill:none;stroke:#f1811a;stroke-miterlimit:10}.gcls-1,.gcls-3{stroke-width:2px}.gcls-2{stroke-width:.5px}.gcls-3,.gcls-5{stroke-linecap:round}</style></defs><path class="gcls-1" d="M307.72 120.31L177.88 62.7v-5.55c-13.18-5.78-29.42-12-40.63-16.13a79.93 79.93 0 00-31.39-4.9c-24.33 1.11-57.31 5.71-67.38 7.15-8.63 1.23-10 3.84-10 5.44a9.59 9.59 0 01-.48 3.61A103.91 103.91 0 0022.31 79M29.61 46.38s1.27-15.7 28.61-17.91"/><ellipse class="gcls-1" cx="67.63" cy="24.54" rx="9.41" ry="11.49"/><ellipse class="gcls-2" cx="67.63" cy="24.54" rx="6.39" ry="7.8"/><path class="gcls-3" d="M70.25 36s4.57-.76 9.52-6.06a18.62 18.62 0 0113.56-5.81c9.86-.06 25.46.84 37.36 6.13l169.63 77.44s8.94.92 7.4 21.89v59.22L157.4 161.76a39.35 39.35 0 00-33.11 9.32 109.2 109.2 0 00-14.53 16 17.54 17.54 0 01-14 7H23.69a10.39 10.39 0 01-9.78-6.86c-2.65-7.31-6-18.47-3.8-23.06l-4.11.19a2.36 2.36 0 01-2.47-2.53l2.49-34a10.39 10.39 0 0110.36-9.63H31.7s3.08 0 3.7 2.1"/><path class="gcls-3" d="M113.85 74.11s-56.55-1.74-88.94 4.06a14.94 14.94 0 00-11.72 13.52l-2.95 28.2"/><path class="gcls-1" d="M306.45 114.52s10.55-6.18 10.55 8.94 1.85 67.23 1.85 67.23l66.92 11.05V174a3.29 3.29 0 00-1.56-2.8l-.4-.25a3.76 3.76 0 01-1.78-3.55c.54-5.91.92-21.31-9.52-23.3l-55.05-25.44"/><rect class="gcls-1" x="80.74" y="165.63" width="6.43" height="19.16" rx="2.88" transform="rotate(3.94 84.035 175.245)"/><rect class="gcls-1" x="70.71" y="165.63" width="6.43" height="19.16" rx="2.88" transform="rotate(3.94 73.995 175.3)"/><rect class="gcls-1" x="60.68" y="165.63" width="6.43" height="19.16" rx="2.88" transform="rotate(3.94 63.95 175.208)"/><rect class="gcls-1" x="50.65" y="165.63" width="6.43" height="19.16" rx="2.88" transform="rotate(3.94 53.91 175.262)"/><rect class="gcls-1" x="40.62" y="165.63" width="6.43" height="19.16" rx="2.88" transform="rotate(3.94 43.87 175.317)"/><rect class="gcls-1" x="30.59" y="165.63" width="6.43" height="19.16" rx="2.88" transform="rotate(3.94 33.824 175.226)"/><rect class="gcls-1" x="20.56" y="165.63" width="6.43" height="19.16" rx="2.88" transform="rotate(3.94 23.784 175.28)"/><path class="gcls-3" d="M73.79 133.16L29.92 135a3 3 0 01-3-3v-7.25a3 3 0 013-3l43.87-1.86a3 3 0 013 3v7.24a3 3 0 01-3 3.03zM75 119.89s.77-3.68 4-4c1.88-.18 11.13-.41 19-.57a87.56 87.56 0 0122.46 2.44l40.12 9.69"/><circle class="gcls-3" cx="96.8" cy="97.09" r="3.33"/><circle class="gcls-3" cx="21.77" cy="99" r="3.33"/><circle class="gcls-3" cx="34.74" cy="97.81" r="5"/><circle class="gcls-3" cx="84.41" cy="96.88" r="5"/><path class="gcls-3" d="M13.5 89.76s7.62-7 31.56-3.93M69.32 86c22-6.4 44.7-1.65 53.25.93"/><path class="gcls-1" d="M24.91 78.17l5.27-23a8.66 8.66 0 017.1-6.62l25.47-4a2.53 2.53 0 012.83 3.18L58 74.76M61 74.6l7.48-26.12a8.23 8.23 0 017.72-6l34.53-.74a5.11 5.11 0 015 6.62l-7.9 25.47M149.92 51.91l-9.22-3a15.14 15.14 0 00-19.39 11l-2 8.71a7 7 0 004.69 8.24l23.45 7.33zM160.61 71.64l2.56 2.12a9.11 9.11 0 013.3 7.24l-1.34 60a11 11 0 01-4.27 8.48l-3.54 2.74M169.86 73.87l3.51 2.32a9.34 9.34 0 014.18 8l-1.35 55.29a18.68 18.68 0 01-4.66 11.88l-1.68 1.9"/><circle class="gcls-4" cx="161.22" cy="73.09" r="2.57"/><circle class="gcls-4" cx="157.32" cy="151.63" r="2.57"/><circle class="gcls-4" cx="169.86" cy="153.27" r="2.57"/><circle class="gcls-4" cx="170.69" cy="74.94" r="2.57"/><ellipse class="gcls-1" cx="215.51" cy="98.88" rx="6.17" ry="11.24"/><ellipse class="gcls-1" cx="240.28" cy="108.4" rx="6.17" ry="10.93"/><ellipse class="gcls-1" cx="265.06" cy="118.13" rx="5.24" ry="9.88"/><ellipse class="gcls-1" cx="289.84" cy="127.95" rx="4.27" ry="8.06"/><ellipse class="gcls-1" cx="344.66" cy="148.97" rx="4.01" ry="7.58"/><ellipse class="gcls-1" cx="363.85" cy="156.55" rx="3.76" ry="7.1"/><path class="gcls-1" d="M307.9 185.44l10.92 5.25"/><path class="gcls-4" d="M176.36 132.69l130.09 34.87M176.36 121.38l131.54 38.16M177.02 105.98l130.88 45.65M176.36 95.84l131.36 48.28M294.02 129.61l13.88 5.41M270.3 120.36l15.27 5.96M246.36 111.03l13.46 5.25M221.57 101.37l12.55 4.89M177.55 84.2l31.78 12.39M293.28 123.19l14.44 6.43M269.62 112.65l18.03 8.03M245.04 101.7l17.48 7.79M219.66 90.4l17.97 8M177.55 71.64l36.15 16.1"/><path class="gcls-1" d="M122.57 86.97l43.49 12.52"/><path class="gcls-5" d="M318.14 170.62l67.6 17.45M317.88 162.31l67.86 19.43M317.65 154.76l68.09 22.82M317.42 146.58l66.36 24.39M367.63 158.73l14.55 6.04M348.55 150.81l11.54 4.79M317.2 137.8l23.44 9.73M367.14 152.51l14.91 6.27M347.88 144.42l13.9 5.84M317.06 131.48l25.37 10.65"/><path class="gcls-3" d="M316.97 123.46L381 152.97M209.34 3.8l176.4 105.81M149.92 1l239.41 127.02"/><path class="gcls-1" d="M217.82 8.88l.15 27.3M322.45 71.64l.68 21.26M189.85 30.01l104.26 59.75v15.13M276.45 79.64v16.94"/><circle class="gcls-1" cx="187.83" cy="31.32" r="2.85"/><circle class="gcls-1" cx="225.99" cy="53.16" r="2.85"/><path class="gcls-1" d="M187.83 34.17l.73 22.53M237.94 79.25s1.42-8.12 6.86-6.16c4 1.43 4.47 6.9 2.93 10.63"/><path class="gcls-1" d="M270.37 94.05v-4.61a11.27 11.27 0 00-5.91-9.91l-18-9.74-1.65 3.3M224.14 54.78a15.91 15.91 0 01-2.47 6.54v9.3l8.64 4.32-1-13.62s-5.17-3.86-5.17-6.54zM96 24.15a12.68 12.68 0 019.15-9.87c8-2.16 17.58.62 22.82-1.23 4.74-1.68 14.69-2.59 20.36-.7a1.66 1.66 0 011 2.23l-2.12 4.83a.63.63 0 00.58.89c3 0 12.18.21 14.19 4.24l3.11 7.8 5.39 2.84a2 2 0 01.9 2.53L168 45.44l9.06-1.78a3 3 0 011.76.19l14.47 6.46-.51 6.94 2.87-2.47.42-2.23a1.31 1.31 0 011.28-1.06h5a2.1 2.1 0 011.36.49l1.47 1.18h2.42a2.79 2.79 0 012.47 1.5l.25.48.82 1.56 6.71 4.46-.54 8"/><path class="gcls-3" d="M107.56 5.03l20.36 8.02M119.1 13.62l-11.54-8.59"/><path class="gcls-1" d="M105.1 14.28l-37.47-1.23"/><path class="gcls-3" d="M365.7 113.27s-2.76-6.8-7.09-1.55-5.71 7.11-5.71 7.11l2 13.57 4.68 1.7 5.19-7.1-2.86-13.53"/><path class="gcls-3" d="M333.78 113.27a12.27 12.27 0 018.48-4.15c5.24-.16 20.66.61 20.66.61"/><path class="gcls-1" d="M329.47 124.24l6-6.11 20.59-7.76M363.85 124.84l-24.83-15.11"/><path class="gcls-1" d="M339.02 110.92l-3.55 7.21 4.92 3.78 2.37-1.6-1.35-9.13"/><path class="gcls-1" d="M335.47 127l3.65-.62 1.27-4.48 2.37-1.6a23.13 23.13 0 012.58 4.53l8.33 4.78 1.23 2.78 4.68 1.7 3.34 1.9 2.78 2.21h.74a2.5 2.5 0 012.5 2.5v1.77M308.52 113.66s3.05-5.71 5.83-4 3.08 9.07 3.08 9.07"/><path class="gcls-1" d="M312.4 109.49s4-4.23 7.5.24c1.15 1.47.54 3.94.43 5.7a28.29 28.29 0 01-.43 3.55M320.33 115.43l11.97 5.93M319.9 109.73l15.57 8.4M335.47 127.01v-8.88M210.37 55.14l12.77 3.42M195.16 59.2s9.89-3.88 9.82 5M89 197.8l27.86 1.36M385.74 201.74l-4.17 9a8.56 8.56 0 01-7.76 4.95h-4.87M122.66 204.58a16 16 0 01-5.8-5.42h-.22M138.34 205.23c3.11-1.4 6.27-3.36 8.08-6.22l159.17 13.79M64.17 201.83c-3-2-4.46-5-5.51-8M91.32 194.08a17.42 17.42 0 01-7.16 8.76M176.39 206.76a16.62 16.62 0 01-2.89-5.11M193.58 207.46a15.29 15.29 0 01-4-5M211.15 204.62a14.23 14.23 0 01-4 3.73"/><path class="gcls-3" d="M1 199.01l367.94 16.66M1 207.34l381.5 10.43M161.9 68.41v-4.89A1.63 1.63 0 01164 62l5.74 1.73a3.69 3.69 0 012.61 3.64l-1.66 55.51M162.94 147.37a23.57 23.57 0 0010.77 1"/><path class="gcls-1" d="M108.49 100.63s-4.32 12.34-3.39 60.45M10.11 164.16h103.22a13.24 13.24 0 0111.47-4.7l20.56 2"/><path class="gcls-3" d="M77.74 148.13h14.1M11.19 148.13h11.12"/><path class="gcls-5" d="M96.7 91.13a25.25 25.25 0 01-8.81-1.65 10.7 10.7 0 00-3.48-.76 8.53 8.53 0 100 17.06 15 15 0 004.58-1 17.65 17.65 0 015.9-1h2.85a6.34 6.34 0 006.35-6.34 6.35 6.35 0 00-6.35-6.35zM23 104.92a25.57 25.57 0 018.9 1.11 10.59 10.59 0 003.52.56 8.54 8.54 0 10-1-17 14.82 14.82 0 00-4.51 1.26A17.74 17.74 0 0124 92.14l-2.85.18a6.34 6.34 0 00-6 6.71 6.34 6.34 0 006.72 6z"/></svg><svg id="cat4" data-name="Слой 1" viewBox="0 0 279.21 243.82" xmlns="http://www.w3.org/2000/svg"><defs><style>.hcls-1,.hcls-2,.hcls-3,.hcls-4,.hcls-5{fill:none;stroke:#fff;stroke-miterlimit:10}.hcls-1{stroke-width:2px}.hcls-3{stroke-width:.75px}.hcls-4{stroke-width:.5px}.hcls-5{stroke-width:.25px}</style></defs><circle class="hcls-1" cx="139.54" cy="76.81" r="75.81"/><path class="hcls-1" d="M165 37.22a7 7 0 00-4-6.11 51.69 51.69 0 00-42.94 0 7 7 0 00-4 6.11 10.65 10.65 0 00.86 4.16 11.8 11.8 0 0014.29 6.41 37.45 37.45 0 0120.57 0 11.79 11.79 0 0014.29-6.41 10.65 10.65 0 00.93-4.16zM114.1 116.88v.05a7 7 0 004 6.1A51.69 51.69 0 00161 123a7 7 0 004-6.1v-.05a10.56 10.56 0 00-.86-4.15 11.81 11.81 0 00-14.29-6.42 37.45 37.45 0 01-20.57 0 11.81 11.81 0 00-14.28 6.45 10.56 10.56 0 00-.9 4.15zM98.57 51.38a7 7 0 00-6.11 4 48.52 48.52 0 00-4.67 21.47 48.52 48.52 0 004.67 21.47 7 7 0 006.11 4 10.82 10.82 0 004.16-.85 11.81 11.81 0 006.41-14.3 37.45 37.45 0 010-20.57 11.8 11.8 0 00-6.41-14.29 10.64 10.64 0 00-4.16-.93z"/><circle class="hcls-2" cx="139.54" cy="76.81" r="13.47"/><path class="hcls-1" d="M207.91 109.59l20.66 25.52"/><circle class="hcls-1" cx="244.38" cy="150.97" r="22.83"/><circle class="hcls-3" cx="244.38" cy="150.97" r="17.02"/><path class="hcls-1" d="M267.21 145.4l10.79 3.76-5.39 20.25-8.66 2.84-5.27-2.84M66.24 107.76H50.43L39.89 94 4.51 95.22V100l1.26 3.52-.25 13.25 5.86-3.85-1.2 4.77 5.29-3.48-.92 5.61-9 5.27v6.28l-3 1.18v6.59l3 1.76v21.33l-3 2v8l2.25 1.57v20.77l-3.76 2v7.28l2.76 1.5v21.08L1 228.7v5.3l26.71 6.32a4.16 4.16 0 003.85-1 7.81 7.81 0 002.06-8.79"/><path class="hcls-1" d="M41.71 96.35L30.11 100l-1 131.48s-1.86 8.2-16.61 5.23M5.52 140.88h9.31a3.92 3.92 0 013.92 3.92v13.92a3.92 3.92 0 01-3.92 3.92H5.52v-21.76zM4.76 173h9.31a3.92 3.92 0 013.93 3.92v13.92a3.92 3.92 0 01-3.92 3.92H4.76V173z"/><path class="hcls-1" d="M3.68 205.11H13a3.92 3.92 0 013.91 3.89v14a3.92 3.92 0 01-3.91 3.88H3.68v-21.77z"/><path class="hcls-2" d="M23.46 143.64h6.24v9.78h-6.24zM22.52 172.06h6.92v16h-6.92zM22.52 206.68h6.66v15.62h-6.66z"/><path class="hcls-4" d="M45.29 129.53s-2.26-8.9 7.52-7.18 14.3 2.2 14.3 5.35-2.07 12.74-6 14.06-17.31-2.07-17.12-6a16.83 16.83 0 011.3-6.23z"/><path class="hcls-4" d="M59.4 144.58s.37 5.46-3.86 4.71a67.72 67.72 0 00-9.88-.76s-3.77-5.25-1.69-6.48a38.29 38.29 0 014.53-2.22s11.02 2.97 10.9 4.75zM64.07 141.64l1.67-1.38a3.47 3.47 0 013.1-.67L73 140.7a3.46 3.46 0 012.57 3.35v2.1a3.45 3.45 0 01-2.23 3.23l-3.66 1.4a3.45 3.45 0 01-4.11-1.3l-2.17-3.24a3.46 3.46 0 01.67-4.6zM46.8 123.21L45.66 115s19.57-2.78 21.45 1.71-.87 9-.87 9M41.71 174.69v5.36l8.37-9.69a1.66 1.66 0 00-.41-2.52zM41.71 152.62s-2.26 8.71-.75 11.16 3 8.28 3 8.28l10.35-8.47s-9.77-9.52-12.6-10.97z"/><path class="hcls-4" d="M48 152.46a8.71 8.71 0 002.83-2 1.56 1.56 0 012.31-.09c2.12 2.1 5.28 5.95 3.63 8.93-2.4 4.33-5.34 1.52-5.34 1.52l-4.13-5.3a2 2 0 01.7-3.06zM60.15 161.68s-2.24 5.48-.74 7.74 3.19 4.39 3.19 4.39l3.64-.11s2.19-9 3.7-9.55c0 0 2.38-6.55-3.7-4.51zM50.91 182.81l-.69 1.69a2.76 2.76 0 00.38 2.75l2.26 2.89a2.78 2.78 0 003.53.72l2.44-1.36a2.82 2.82 0 001-.87l2.61-3.87a2.76 2.76 0 00-.43-3.59L60.63 180a2.76 2.76 0 00-2.79-.57l-5.29 1.86a2.71 2.71 0 00-1.64 1.52z"/><path class="hcls-4" d="M55.54 169.23c.87.05 7.06 4.58 7.06 4.58l-3.19 5-12 2.64-.84-2.64v-2.45s5.1-7.31 8.97-7.13z"/><path class="hcls-2" d="M31.82 99.45v7.12l3.49 1.32 5.13 1.5 5.22 5.65"/><path class="hcls-4" d="M35.51 107.89l-1.89 122.57M40.44 109.39l-1.7 119.5"/><path class="hcls-2" d="M33.09 237.34l16.52-2.45-3.95-3.18-6.92-2.82-9.64 2.57"/><path class="hcls-1" d="M83.67 128.51l-3.57 9.86 4 3.41a.1.1 0 01-.1.22l-5.24-1.08-4 10.88 4.6 3.2a.1.1 0 01-.06.19h-5.6l-4.14 11.29 4.33 2.87a.06.06 0 010 .12l-5.47-.47-3.78 9.83 4.51 3.59a.1.1 0 01-.06.18l-5.36.18-4.32 10.54 4 2.63a.1.1 0 01-.06.19h-5.1l-4 10.54 4.33 3.39a.11.11 0 01-.06.19H53l-3.39 11.1 3.65 2.95a.11.11 0 01-.08.19l-5.8-.88-1.72 8.09 8.66 7 37.25-103.19"/><path class="hcls-1" d="M49.61 234.89a12.85 12.85 0 00.29 4.92 4.09 4.09 0 004 3h15.23a8.27 8.27 0 002.47-.38l5.3-1.69 3.39-1.13 17.31 1.13s3.52-2.86 1.1-5.85l-1.1-1.78-2.6-10.45-4.12.58 5.64-13 13.13-2.24 29.89-55.38M128.12 151.76l-31.65 58.5"/><path class="hcls-1" transform="rotate(21.15 66.444 213.531)" d="M63.77 207.33h5.33v12.42h-5.33z"/><path class="hcls-1" transform="rotate(21.15 79.071 176.806)" d="M77.09 170.6h3.94v12.42h-3.94z"/><path class="hcls-1" transform="rotate(18.94 89.278 148.459)" d="M87.05 142.21h4.44v12.42h-4.44z"/><path class="hcls-2" d="M96.8 182.7l-4.13-1.5a3.68 3.68 0 01-2.26-4.57l2.94-9.32a3.12 3.12 0 014.1-2l6.54 2.53a3.12 3.12 0 011.67 4.29l-4.3 8.7a3.68 3.68 0 01-4.56 1.87zM83.92 210.35l-2.8-1c-1.25-.44-1.7-2.38-1-4.41l3.43-10c.63-1.85 2.12-3 3.25-2.6l4.41 1.7c1.15.45 1.43 2.39.62 4.19l-4.34 9.59c-.84 1.86-2.38 2.95-3.57 2.53zM108.53 157l-4.68-1.74c-2.11-.79-3.52-2.38-3.19-3.62l1.6-6.11c.3-1.12 2.16-1.45 4.07-.71l7.45 2.88c2 .75 3.11 2.29 2.51 3.32l-3.17 5.44c-.61 1.1-2.59 1.33-4.59.54zM77 220.19l4 1.54a1.49 1.49 0 01.82 2L80.33 227a3.77 3.77 0 01-1.65 1.72l-3 1.59a2.24 2.24 0 01-3.14-2.79l2.5-6.47a1.49 1.49 0 011.96-.86z"/><path class="hcls-4" d="M40.26 223.27l.17 5.25a.64.64 0 00.33.54l4.9 2.65.88-6.38-5.44-2.61a.59.59 0 00-.84.55zM41.71 211.26a8.51 8.51 0 00.45 3.23 10.11 10.11 0 001.18 2.42c1 1.43 2 2.77 2.73 3.75a2.72 2.72 0 003.2.85l.34-.15 2.1-6.87s-7.37-5.49-10-3.23zM49.42 199.48l-.5 8.39 4.08 2.39 1.32-3.58 2.12-5.34-5.79-2.61a.88.88 0 00-1.23.75zM56.39 190.86l.23.52a1.94 1.94 0 01-1.4 2.69l-9.55 1.84a2.73 2.73 0 01-3.37-1.43l-.61-1.28.71-4.4 1.21-1.8 2-3.09 1.72-2.41 3.53 1.34-7.44-2.23a2.21 2.21 0 00-2.6 1.1 3.26 3.26 0 00-.19 2.56l1.72 4.56"/><path class="hcls-4" d="M51.11 196.43l-7.27 7.68a.54.54 0 01-.94-.37v-3.8l3.8-4.38 3.71-.49a.81.81 0 01.7 1.36zM42.9 207.25v3l5.43 2.11 3.38-2.87s-6.55-4.88-8.81-2.24zM63.41 146.24l1.32 13.9M72.85 112.9s-6.74 11.4-5.74 14.8M73.7 140.88s5.53-.1 6.4-2.51"/><path class="hcls-4" d="M68.62 104.62s-5.27 3.89-1.51 8.79 5 .78 5 .78M65.76 115s-.05-3.16 1.35-1.63M55.54 153.19s-1.09-2.86.9-3.84M58.22 143.35s4.1-1 4.38.29M65.76 134.88s.31 3.72 5.3 5.3M42.3 194.48s-4.23 9 .6 12.77M41.35 222.84s-1.09-7.22.81-8.35M52.68 164.93a5.92 5.92 0 006.21 1.59M44 146.24s-2.29 2.4-.63 7.48"/><path class="hcls-1" d="M180.07 140.88s-3.43 5.35 5.1 16.6l18.31-6.21v6.21l13.3-5.72 1.14 42.72.32 12-14-2.18.25 2.18-11.29-2.18-3.27.82 4.27 9.38-3.76 1.5-3-5.73-.75 6a6.37 6.37 0 01-6.4 3.95"/><path class="hcls-2" d="M226.26 137.08s-13.24 2.23-9.48 14.68l.16 6.09 5-1.74"/><path class="hcls-1" d="M227.54 167.45l-.66 2.44-9.68-2.44 41.01 10.25.47-3.89-6.4-1.24M218.24 193.32l23 1.88s8 2.07 12.51-4.61a84.86 84.86 0 007.15-12.89h-2.73"/><path class="hcls-5" d="M218.24 142.42l5.32-.82M218.24 141.7l5.32-.82M218.89 140.74l5.32-.82M219.63 139.66l4.97-.76M217.57 143.36l5.32-.82M216.8 144.38l5.84-.9M216.61 145.29l5.67-.87M216.75 146.18l5.32-.82M216.54 147.12l5.32-.82M216.54 148.06l5.32-.82M216.53 149l5.32-.82M216.54 149.94l5.32-.82M216.54 150.88l5.32-.82M216.54 151.82l5.32-.82M216.54 152.76l5.32-.82M216.54 153.7l5.32-.82M216.54 154.64l5.32-.82M216.54 155.58l5.32-.82"/><path class="hcls-1" d="M97.6 240.74s10.4 2.26 16.18 2.07c0 0-1.08-13.19-14.25-5.47M110.12 235.86l45.53-8.05M140.47 213.07l2.29 6.47 6.15 4.89 41.02-19.32M127.46 218.91l45.79-20.57M161.2 219.54s5.27 15 11.8 16.52a8 8 0 009.66-9.74c-1.51-5.15-6.53-14.71-6.53-14.71"/><circle class="hcls-2" cx="174.94" cy="228.91" r="4.96"/><path class="hcls-1" d="M161.2 222.3s-7.65 1.51-5 8.78l-43.53 7.79"/><circle class="hcls-2" cx="157.35" cy="236.26" r="1.41"/><circle class="hcls-2" cx="167.07" cy="234.65" r="1.41"/><path class="hcls-1" d="M153.05 232.59s-2.89 5 1.38 7.65 8-1.57 8-1.57 6.65 4.13 10.54-2.61M183.54 228.91l-1.26 3.68 29.4-5.66a4 4 0 003.31-4.45 21.77 21.77 0 00-1-4.46 3.52 3.52 0 00-4.08-2.27L181 222"/><path class="hcls-1" d="M186 217.43l18.75-3.43a2.07 2.07 0 012.49 2.06c0 .11 0 .22-.05.33"/><circle class="hcls-4" cx="139.54" cy="68.87" r="2.26"/><circle class="hcls-4" cx="139.54" cy="84.75" r="2.26"/><circle class="hcls-4" cx="147.48" cy="76.81" r="2.26"/><circle class="hcls-4" cx="131.6" cy="76.81" r="2.26"/></svg><svg id="cat4-1" data-name="Слой 1" viewBox="0 0 279.21 243.82" xmlns="http://www.w3.org/2000/svg"><defs><style>.icls-1,.icls-2,.icls-3,.icls-4,.icls-5{fill:none;stroke:#f1811a;stroke-miterlimit:10}.icls-1{stroke-width:2px}.icls-3{stroke-width:.75px}.icls-4{stroke-width:.5px}.icls-5{stroke-width:.25px}</style></defs><circle class="icls-1" cx="139.54" cy="76.81" r="75.81"/><path class="icls-1" d="M165 37.22a7 7 0 00-4-6.11 51.69 51.69 0 00-42.94 0 7 7 0 00-4 6.11 10.65 10.65 0 00.86 4.16 11.8 11.8 0 0014.29 6.41 37.45 37.45 0 0120.57 0 11.79 11.79 0 0014.29-6.41 10.65 10.65 0 00.93-4.16zM114.1 116.88v.05a7 7 0 004 6.1A51.69 51.69 0 00161 123a7 7 0 004-6.1v-.05a10.56 10.56 0 00-.86-4.15 11.81 11.81 0 00-14.29-6.42 37.45 37.45 0 01-20.57 0 11.81 11.81 0 00-14.28 6.45 10.56 10.56 0 00-.9 4.15zM98.57 51.38a7 7 0 00-6.11 4 48.52 48.52 0 00-4.67 21.47 48.52 48.52 0 004.67 21.47 7 7 0 006.11 4 10.82 10.82 0 004.16-.85 11.81 11.81 0 006.41-14.3 37.45 37.45 0 010-20.57 11.8 11.8 0 00-6.41-14.29 10.64 10.64 0 00-4.16-.93z"/><circle class="icls-2" cx="139.54" cy="76.81" r="13.47"/><path class="icls-1" d="M207.91 109.59l20.66 25.52"/><circle class="icls-1" cx="244.38" cy="150.97" r="22.83"/><circle class="icls-3" cx="244.38" cy="150.97" r="17.02"/><path class="icls-1" d="M267.21 145.4l10.79 3.76-5.39 20.25-8.66 2.84-5.27-2.84M66.24 107.76H50.43L39.89 94 4.51 95.22V100l1.26 3.52-.25 13.25 5.86-3.85-1.2 4.77 5.29-3.48-.92 5.61-9 5.27v6.28l-3 1.18v6.59l3 1.76v21.33l-3 2v8l2.25 1.57v20.77l-3.76 2v7.28l2.76 1.5v21.08L1 228.7v5.3l26.71 6.32a4.16 4.16 0 003.85-1 7.81 7.81 0 002.06-8.79"/><path class="icls-1" d="M41.71 96.35L30.11 100l-1 131.48s-1.86 8.2-16.61 5.23M5.52 140.88h9.31a3.92 3.92 0 013.92 3.92v13.92a3.92 3.92 0 01-3.92 3.92H5.52v-21.76zM4.76 173h9.31a3.92 3.92 0 013.93 3.92v13.92a3.92 3.92 0 01-3.92 3.92H4.76V173z"/><path class="icls-1" d="M3.68 205.11H13a3.92 3.92 0 013.91 3.89v14a3.92 3.92 0 01-3.91 3.88H3.68v-21.77z"/><path class="icls-2" d="M23.46 143.64h6.24v9.78h-6.24zM22.52 172.06h6.92v16h-6.92zM22.52 206.68h6.66v15.62h-6.66z"/><path class="icls-4" d="M45.29 129.53s-2.26-8.9 7.52-7.18 14.3 2.2 14.3 5.35-2.07 12.74-6 14.06-17.31-2.07-17.12-6a16.83 16.83 0 011.3-6.23z"/><path class="icls-4" d="M59.4 144.58s.37 5.46-3.86 4.71a67.72 67.72 0 00-9.88-.76s-3.77-5.25-1.69-6.48a38.29 38.29 0 014.53-2.22s11.02 2.97 10.9 4.75zM64.07 141.64l1.67-1.38a3.47 3.47 0 013.1-.67L73 140.7a3.46 3.46 0 012.57 3.35v2.1a3.45 3.45 0 01-2.23 3.23l-3.66 1.4a3.45 3.45 0 01-4.11-1.3l-2.17-3.24a3.46 3.46 0 01.67-4.6zM46.8 123.21L45.66 115s19.57-2.78 21.45 1.71-.87 9-.87 9M41.71 174.69v5.36l8.37-9.69a1.66 1.66 0 00-.41-2.52zM41.71 152.62s-2.26 8.71-.75 11.16 3 8.28 3 8.28l10.35-8.47s-9.77-9.52-12.6-10.97z"/><path class="icls-4" d="M48 152.46a8.71 8.71 0 002.83-2 1.56 1.56 0 012.31-.09c2.12 2.1 5.28 5.95 3.63 8.93-2.4 4.33-5.34 1.52-5.34 1.52l-4.13-5.3a2 2 0 01.7-3.06zM60.15 161.68s-2.24 5.48-.74 7.74 3.19 4.39 3.19 4.39l3.64-.11s2.19-9 3.7-9.55c0 0 2.38-6.55-3.7-4.51zM50.91 182.81l-.69 1.69a2.76 2.76 0 00.38 2.75l2.26 2.89a2.78 2.78 0 003.53.72l2.44-1.36a2.82 2.82 0 001-.87l2.61-3.87a2.76 2.76 0 00-.43-3.59L60.63 180a2.76 2.76 0 00-2.79-.57l-5.29 1.86a2.71 2.71 0 00-1.64 1.52z"/><path class="icls-4" d="M55.54 169.23c.87.05 7.06 4.58 7.06 4.58l-3.19 5-12 2.64-.84-2.64v-2.45s5.1-7.31 8.97-7.13z"/><path class="icls-2" d="M31.82 99.45v7.12l3.49 1.32 5.13 1.5 5.22 5.65"/><path class="icls-4" d="M35.51 107.89l-1.89 122.57M40.44 109.39l-1.7 119.5"/><path class="icls-2" d="M33.09 237.34l16.52-2.45-3.95-3.18-6.92-2.82-9.64 2.57"/><path class="icls-1" d="M83.67 128.51l-3.57 9.86 4 3.41a.1.1 0 01-.1.22l-5.24-1.08-4 10.88 4.6 3.2a.1.1 0 01-.06.19h-5.6l-4.14 11.29 4.33 2.87a.06.06 0 010 .12l-5.47-.47-3.78 9.83 4.51 3.59a.1.1 0 01-.06.18l-5.36.18-4.32 10.54 4 2.63a.1.1 0 01-.06.19h-5.1l-4 10.54 4.33 3.39a.11.11 0 01-.06.19H53l-3.39 11.1 3.65 2.95a.11.11 0 01-.08.19l-5.8-.88-1.72 8.09 8.66 7 37.25-103.19"/><path class="icls-1" d="M49.61 234.89a12.85 12.85 0 00.29 4.92 4.09 4.09 0 004 3h15.23a8.27 8.27 0 002.47-.38l5.3-1.69 3.39-1.13 17.31 1.13s3.52-2.86 1.1-5.85l-1.1-1.78-2.6-10.45-4.12.58 5.64-13 13.13-2.24 29.89-55.38M128.12 151.76l-31.65 58.5"/><path class="icls-1" transform="rotate(21.15 66.444 213.531)" d="M63.77 207.33h5.33v12.42h-5.33z"/><path class="icls-1" transform="rotate(21.15 79.071 176.806)" d="M77.09 170.6h3.94v12.42h-3.94z"/><path class="icls-1" transform="rotate(18.94 89.278 148.459)" d="M87.05 142.21h4.44v12.42h-4.44z"/><path class="icls-2" d="M96.8 182.7l-4.13-1.5a3.68 3.68 0 01-2.26-4.57l2.94-9.32a3.12 3.12 0 014.1-2l6.54 2.53a3.12 3.12 0 011.67 4.29l-4.3 8.7a3.68 3.68 0 01-4.56 1.87zM83.92 210.35l-2.8-1c-1.25-.44-1.7-2.38-1-4.41l3.43-10c.63-1.85 2.12-3 3.25-2.6l4.41 1.7c1.15.45 1.43 2.39.62 4.19l-4.34 9.59c-.84 1.86-2.38 2.95-3.57 2.53zM108.53 157l-4.68-1.74c-2.11-.79-3.52-2.38-3.19-3.62l1.6-6.11c.3-1.12 2.16-1.45 4.07-.71l7.45 2.88c2 .75 3.11 2.29 2.51 3.32l-3.17 5.44c-.61 1.1-2.59 1.33-4.59.54zM77 220.19l4 1.54a1.49 1.49 0 01.82 2L80.33 227a3.77 3.77 0 01-1.65 1.72l-3 1.59a2.24 2.24 0 01-3.14-2.79l2.5-6.47a1.49 1.49 0 011.96-.86z"/><path class="icls-4" d="M40.26 223.27l.17 5.25a.64.64 0 00.33.54l4.9 2.65.88-6.38-5.44-2.61a.59.59 0 00-.84.55zM41.71 211.26a8.51 8.51 0 00.45 3.23 10.11 10.11 0 001.18 2.42c1 1.43 2 2.77 2.73 3.75a2.72 2.72 0 003.2.85l.34-.15 2.1-6.87s-7.37-5.49-10-3.23zM49.42 199.48l-.5 8.39 4.08 2.39 1.32-3.58 2.12-5.34-5.79-2.61a.88.88 0 00-1.23.75zM56.39 190.86l.23.52a1.94 1.94 0 01-1.4 2.69l-9.55 1.84a2.73 2.73 0 01-3.37-1.43l-.61-1.28.71-4.4 1.21-1.8 2-3.09 1.72-2.41 3.53 1.34-7.44-2.23a2.21 2.21 0 00-2.6 1.1 3.26 3.26 0 00-.19 2.56l1.72 4.56"/><path class="icls-4" d="M51.11 196.43l-7.27 7.68a.54.54 0 01-.94-.37v-3.8l3.8-4.38 3.71-.49a.81.81 0 01.7 1.36zM42.9 207.25v3l5.43 2.11 3.38-2.87s-6.55-4.88-8.81-2.24zM63.41 146.24l1.32 13.9M72.85 112.9s-6.74 11.4-5.74 14.8M73.7 140.88s5.53-.1 6.4-2.51"/><path class="icls-4" d="M68.62 104.62s-5.27 3.89-1.51 8.79 5 .78 5 .78M65.76 115s-.05-3.16 1.35-1.63M55.54 153.19s-1.09-2.86.9-3.84M58.22 143.35s4.1-1 4.38.29M65.76 134.88s.31 3.72 5.3 5.3M42.3 194.48s-4.23 9 .6 12.77M41.35 222.84s-1.09-7.22.81-8.35M52.68 164.93a5.92 5.92 0 006.21 1.59M44 146.24s-2.29 2.4-.63 7.48"/><path class="icls-1" d="M180.07 140.88s-3.43 5.35 5.1 16.6l18.31-6.21v6.21l13.3-5.72 1.14 42.72.32 12-14-2.18.25 2.18-11.29-2.18-3.27.82 4.27 9.38-3.76 1.5-3-5.73-.75 6a6.37 6.37 0 01-6.4 3.95"/><path class="icls-2" d="M226.26 137.08s-13.24 2.23-9.48 14.68l.16 6.09 5-1.74"/><path class="icls-1" d="M227.54 167.45l-.66 2.44-9.68-2.44 41.01 10.25.47-3.89-6.4-1.24M218.24 193.32l23 1.88s8 2.07 12.51-4.61a84.86 84.86 0 007.15-12.89h-2.73"/><path class="icls-5" d="M218.24 142.42l5.32-.82M218.24 141.7l5.32-.82M218.89 140.74l5.32-.82M219.63 139.66l4.97-.76M217.57 143.36l5.32-.82M216.8 144.38l5.84-.9M216.61 145.29l5.67-.87M216.75 146.18l5.32-.82M216.54 147.12l5.32-.82M216.54 148.06l5.32-.82M216.53 149l5.32-.82M216.54 149.94l5.32-.82M216.54 150.88l5.32-.82M216.54 151.82l5.32-.82M216.54 152.76l5.32-.82M216.54 153.7l5.32-.82M216.54 154.64l5.32-.82M216.54 155.58l5.32-.82"/><path class="icls-1" d="M97.6 240.74s10.4 2.26 16.18 2.07c0 0-1.08-13.19-14.25-5.47M110.12 235.86l45.53-8.05M140.47 213.07l2.29 6.47 6.15 4.89 41.02-19.32M127.46 218.91l45.79-20.57M161.2 219.54s5.27 15 11.8 16.52a8 8 0 009.66-9.74c-1.51-5.15-6.53-14.71-6.53-14.71"/><circle class="icls-2" cx="174.94" cy="228.91" r="4.96"/><path class="icls-1" d="M161.2 222.3s-7.65 1.51-5 8.78l-43.53 7.79"/><circle class="icls-2" cx="157.35" cy="236.26" r="1.41"/><circle class="icls-2" cx="167.07" cy="234.65" r="1.41"/><path class="icls-1" d="M153.05 232.59s-2.89 5 1.38 7.65 8-1.57 8-1.57 6.65 4.13 10.54-2.61M183.54 228.91l-1.26 3.68 29.4-5.66a4 4 0 003.31-4.45 21.77 21.77 0 00-1-4.46 3.52 3.52 0 00-4.08-2.27L181 222"/><path class="icls-1" d="M186 217.43l18.75-3.43a2.07 2.07 0 012.49 2.06c0 .11 0 .22-.05.33"/><circle class="icls-4" cx="139.54" cy="68.87" r="2.26"/><circle class="icls-4" cx="139.54" cy="84.75" r="2.26"/><circle class="icls-4" cx="147.48" cy="76.81" r="2.26"/><circle class="icls-4" cx="131.6" cy="76.81" r="2.26"/></svg><svg viewBox="0 0 477.867 477.867" id="email" xmlns="http://www.w3.org/2000/svg"><path d="M460.8 68.267H17.067l221.867 182.75L463.309 68.779c-.821-.24-1.66-.411-2.509-.512z" fill="#f1811a" data-original="#000000"/><path d="M249.702 286.31a17.065 17.065 0 01-21.623 0L0 98.406v294.127c0 9.426 7.641 17.067 17.067 17.067H460.8c9.426 0 17.067-7.641 17.067-17.067V100.932L249.702 286.31z" fill="#f1811a" data-original="#000000"/></svg><svg aria-hidden="true" data-prefix="fas" data-icon="envelope" class="ksvg-inline--fa kfa-envelope kfa-w-16" viewBox="0 0 512 512" id="email1" xmlns="http://www.w3.org/2000/svg"><path fill="currentColor" d="M502.3 190.8c3.9-3.1 9.7-.2 9.7 4.7V400c0 26.5-21.5 48-48 48H48c-26.5 0-48-21.5-48-48V195.6c0-5 5.7-7.8 9.7-4.7 22.4 17.4 52.1 39.5 154.1 113.6 21.1 15.4 56.7 47.8 92.2 47.6 35.7.3 72-32.8 92.3-47.6 102-74.1 131.6-96.3 154-113.7zM256 320c23.2.4 56.6-29.2 73.4-41.4 132.7-96.3 142.8-104.7 173.4-128.7 5.8-4.5 9.2-11.5 9.2-18.9v-19c0-26.5-21.5-48-48-48H48C21.5 64 0 85.5 0 112v19c0 7.4 3.4 14.3 9.2 18.9 30.6 23.9 40.7 32.4 173.4 128.7 16.8 12.2 50.2 41.8 73.4 41.4z"/></svg><svg viewBox="0 0 512 512" id="placeholder" xmlns="http://www.w3.org/2000/svg"><path d="M256 0C156.011 0 74.667 81.344 74.667 181.333c0 96.725 165.781 317.099 172.843 326.443 1.984 2.667 5.163 4.224 8.491 4.224 3.328 0 6.507-1.557 8.491-4.224 7.061-9.344 172.843-229.717 172.843-326.443C437.333 81.344 355.989 0 256 0zm0 277.333c-52.928 0-96-43.072-96-96s43.072-96 96-96 96 43.072 96 96-43.072 96-96 96z" fill="#f1811a" data-original="#000000"/></svg><svg viewBox="0 0 477.867 477.867" id="time" xmlns="http://www.w3.org/2000/svg"><path d="M238.933 0C106.974 0 0 106.974 0 238.933s106.974 238.933 238.933 238.933 238.933-106.974 238.933-238.933C477.726 107.033 370.834.141 238.933 0zM256 238.933c0 9.426-7.641 17.067-17.067 17.067H102.4c-9.426 0-17.067-7.641-17.067-17.067s7.641-17.067 17.067-17.067h119.467V102.4c0-9.426 7.641-17.067 17.067-17.067S256 92.974 256 102.4v136.533z" fill="#f1811a" data-original="#000000"/></svg></svg>